<?xml version="1.0" standalone="no"?>
<!DOCTYPE svg PUBLIC "-//W3C//DTD SVG 1.1//EN" "http://www.w3.org/Graphics/SVG/1.1/DTD/svg11.dtd" >
<svg xmlns="http://www.w3.org/2000/svg">
<metadata>
This is a custom SVG webfont generated by Font Squirrel.
Copyright   :  2000 2004 Adobe Systems Incorporated All Rights Reserved US Patent D454582
Designer    : Robert Slimbach and Carol Twombly
Foundry URL : httpwwwadobecomtype
</metadata>
<defs>
<font id="MyriadProBoldCondensed" horiz-adv-x="872" >
<font-face units-per-em="2048" ascent="1536" descent="-512" />
<missing-glyph horiz-adv-x="325" />
<glyph unicode=" "  horiz-adv-x="325" />
<glyph unicode="&#x09;" horiz-adv-x="325" />
<glyph unicode="&#xa0;" horiz-adv-x="325" />
<glyph unicode="!" horiz-adv-x="483" d="M88 147q0 74 45 120t109 46q68 0 110.5 -46t42.5 -120q0 -72 -42 -117.5t-109 -45.5h-2q-66 0 -110 46.5t-44 116.5zM96 1380h293l-33 -931h-229z" />
<glyph unicode="&#x22;" horiz-adv-x="677" d="M68 1401h215l-41 -533h-133zM395 1401h217l-43 -533h-131z" />
<glyph unicode="#" d="M31 399v154h168l28 235h-153v154h174l47 389h151l-47 -389h146l49 389h151l-49 -389h146v-154h-164l-31 -235h154v-154h-172l-51 -399h-154l51 399h-145l-49 -399h-154l51 399h-147zM350 553h146l28 235h-145z" />
<glyph unicode="$" d="M113 88l41 211q98 -57 213 -57q72 0 111.5 37.5t39.5 97.5q0 111 -158 209q-127 80 -186 160.5t-59 195.5q0 117 65.5 206t179.5 128v209h175v-189q109 0 202 -51l-45 -205q-90 51 -178 52q-70 0 -108.5 -36t-38.5 -91q0 -53 32.5 -92t135.5 -103q233 -139 233 -369 q0 -135 -70.5 -227t-191.5 -121v-227h-174v209q-127 2 -219 53z" />
<glyph unicode="%" horiz-adv-x="1345" d="M37 934q0 172 72.5 293t197.5 121h2q92 0 153.5 -64.5t84 -150.5t22.5 -189q0 -199 -76.5 -305.5t-187.5 -106.5q-131 0 -199.5 119t-68.5 283zM217 942q-4 -268 88 -268q84 0 84 264q0 266 -84 266h-2q-86 0 -86 -262zM244 -20l717 1370h139l-717 -1370h-139zM776 391 q0 170 73 291t198 121h2q92 0 153.5 -64.5t84 -150.5t22.5 -187q0 -201 -77 -307t-188 -106q-131 0 -199.5 119.5t-68.5 283.5zM956 397q-4 -266 88 -266q84 0 84 264q0 266 -84 267h-2q-86 -1 -86 -265z" />
<glyph unicode="&#x26;" horiz-adv-x="1085" d="M39 371q0 240 217 379v4q-102 141 -102 299q0 145 94 244.5t252 99.5q133 0 218 -85t85 -225q0 -104 -49 -191t-189 -183v-8q143 -217 203 -293q53 100 61 323h228q-31 -315 -174 -487q14 -16 49 -62.5t72.5 -93.5t72.5 -92h-293q-6 8 -27.5 38t-37.5 52 q-121 -106 -299 -106q-174 0 -277.5 110.5t-103.5 276.5zM285 403q0 -92 51 -156.5t133 -64.5h2q86 0 141 66q-72 88 -250 346q-77 -78 -77 -191zM391 1063q0 -104 68 -205q119 94 119 217q0 143 -89 144h-2q-45 0 -70.5 -44t-25.5 -112z" />
<glyph unicode="'" horiz-adv-x="348" d="M68 1401h215l-41 -533h-133z" />
<glyph unicode="(" horiz-adv-x="528" d="M66 584q6 279 72.5 490.5t162.5 342.5h193q-217 -340 -218 -835q0 -475 218 -828h-193q-100 133 -167.5 345.5t-67.5 484.5z" />
<glyph unicode=")" horiz-adv-x="528" d="M35 -246q217 344 217 836q0 483 -217 827h192q236 -307 236 -827q-10 -522 -236 -836h-192z" />
<glyph unicode="*" horiz-adv-x="788" d="M31 924v186l278 -53l6 6l-200 235l168 97l108 -289h6l105 291l168 -94l-203 -240l2 -6l289 53v-186l-291 53l-2 -6l205 -232l-172 -96l-109 295l-4 -6l-117 -291l-153 96l202 244l-4 2z" />
<glyph unicode="+" horiz-adv-x="1220" d="M82 463v168h442v459h172v-459h443v-168h-443v-463h-172v463h-442z" />
<glyph unicode="," horiz-adv-x="477" d="M20 -256q102 293 138 545l272 20q-117 -348 -237 -547z" />
<glyph unicode="-" horiz-adv-x="530" d="M61 469v193h408v-193h-408z" />
<glyph unicode="." horiz-adv-x="477" d="M98 162q0 76 47.5 127t110.5 51q66 0 111 -49t45 -129q0 -82 -43 -130t-115 -48h-2q-63 0 -108.5 49t-45.5 129z" />
<glyph unicode="/" horiz-adv-x="573" d="M-45 -82l479 1479h176l-481 -1479h-174z" />
<glyph unicode="0" d="M47 659q0 305 100.5 497t298.5 192q111 0 189 -59.5t118 -162t56 -213t16 -241.5q0 -342 -108.5 -515t-280.5 -173q-104 0 -182 56t-122 154.5t-64.5 214t-20.5 250.5zM317 666q-6 -453 125 -453q61 0 87 108.5t26 344.5q0 453 -113 452q-127 1 -125 -452z" />
<glyph unicode="1" d="M92 1174l305 157h236v-1331h-266v1079h-5l-225 -116z" />
<glyph unicode="2" d="M49 0v180l133 170q111 139 164 215t101.5 181.5t48.5 195.5q0 82 -44 132t-126 50q-92 0 -201 -67l-47 209q129 82 297 82q201 0 293 -111t92 -274q0 -168 -82 -313.5t-227 -315.5l-80 -92v-4h407v-238h-729z" />
<glyph unicode="3" d="M49 43l39 211q88 -51 199 -51q94 0 147 53t53 139q0 104 -69.5 157.5t-179.5 53.5h-37v197h26q88 2 157 43t69 129q0 72 -42 112.5t-114 40.5q-82 0 -168 -53l-35 203q111 70 275 70q166 0 258 -93.5t92 -228.5q0 -98 -51.5 -178t-139.5 -121v-4q102 -35 165 -122 t63 -216q0 -164 -120 -282.5t-325 -118.5q-153 0 -262 59z" />
<glyph unicode="4" d="M23 317v185l436 829h258v-799h133v-215h-133v-317h-238v317h-456zM250 532h229v273q0 57 15 219h-9q-41 -98 -92 -207l-143 -280v-5z" />
<glyph unicode="5" d="M57 37l41 213q94 -47 191 -47q100 0 158.5 60.5t58.5 166.5q0 125 -81 181.5t-208 56.5q-68 0 -94 -4l74 667h551v-233h-353l-30 -238h41q150 -6 249 -100q115 -111 115 -305q0 -201 -125 -336t-338 -135q-152 0 -250 53z" />
<glyph unicode="6" d="M47 532q0 387 219 621q129 143 326 180q39 8 135 15v-218q-57 -4 -111 -14q-238 -53 -297 -354h7q80 106 204 106q135 0 218 -112.5t83 -300.5q0 -193 -98 -332t-280 -139q-188 0 -297 149t-109 399zM319 469q0 -131 35 -211t95 -80h2q117 0 116 279q-2 92 -32.5 155.5 t-92.5 63.5q-72 0 -108 -90q-15 -25 -15 -117z" />
<glyph unicode="7" d="M80 1094v237h725v-176l-418 -1155h-262l410 1090v4h-455z" />
<glyph unicode="8" d="M41 346q0 225 201 354v5q-82 53 -123 131.5t-41 160.5q0 158 108.5 254.5t268.5 96.5q145 0 244.5 -91.5t99.5 -236.5q0 -184 -174 -295v-4q94 -51 149 -142.5t55 -205.5q0 -178 -114.5 -283.5t-284.5 -105.5q-172 0 -280.5 100t-108.5 262zM301 377q0 -90 37 -151.5 t102 -61.5q61 0 95 55t34 143q0 166 -153 246q-115 -79 -115 -231zM330 1006q0 -131 131 -201q41 23 66.5 77t25.5 113q0 74 -26.5 123t-82 49t-85 -46.5t-29.5 -114.5z" />
<glyph unicode="9" d="M49 881q0 184 107.5 325.5t289.5 141.5q180 0 278.5 -149.5t98.5 -397.5q0 -410 -219 -643q-127 -135 -328 -168q-43 -6 -124 -6v223q66 0 122 10q90 18 156 80q96 92 129 268h-6q-76 -82 -191 -82q-133 0 -223 110t-90 288zM313 903q2 -102 34 -168.5t91 -66.5 q33 0 61.5 20.5t41.5 48.5q12 33 12 142q0 129 -33 201.5t-88 72.5h-2q-53 0 -86 -66.5t-31 -183.5z" />
<glyph unicode=":" horiz-adv-x="477" d="M104 154q0 70 45.5 120t106.5 50q66 0 109 -47.5t43 -123t-42 -122.5t-112 -47h-2q-61 0 -104.5 48t-43.5 122zM104 823q0 72 45.5 122t106.5 50q66 0 109 -47t43 -125q0 -74 -42 -121t-112 -47h-2q-61 0 -104.5 47t-43.5 121z" />
<glyph unicode=";" horiz-adv-x="477" d="M23 -256q102 293 137 545l264 20q-117 -348 -238 -547zM115 823q0 72 44 122t107 50q66 0 109 -47t43 -125q0 -74 -42 -121t-112 -47h-2q-61 0 -104 47t-43 121z" />
<glyph unicode="&#x3c;" horiz-adv-x="1220" d="M119 481v127l983 482v-209l-721 -336v-4l721 -334v-207z" />
<glyph unicode="=" horiz-adv-x="1220" d="M82 272v168h1057v-168h-1057zM82 655v168h1057v-168h-1057z" />
<glyph unicode="&#x3e;" horiz-adv-x="1220" d="M119 0v203l786 340v4l-786 340v203l983 -455v-180z" />
<glyph unicode="?" horiz-adv-x="684" d="M61 1343q92 61 240 62q96 0 167 -29.5t107.5 -78t54 -100.5t17.5 -107q0 -66 -26.5 -137.5t-51 -112.5t-73.5 -113q-90 -137 -88 -252v-43h-228l-4 37q-18 150 109 348q88 131 88 230q0 57 -37 92t-98 35q-82 0 -132 -37zM143 147q0 74 45 120t107 48q68 0 111 -47 t43 -121q0 -72 -41 -117.5t-111 -45.5h-2q-66 0 -109 46.5t-43 116.5z" />
<glyph unicode="@" horiz-adv-x="1271" d="M63 412q0 319 187.5 560.5t476.5 241.5q233 0 358 -153.5t125 -376.5q0 -262 -86 -406.5t-237 -144.5q-150 0 -150 174h-6q-37 -82 -97.5 -128t-127.5 -46q-82 0 -129 66.5t-47 179.5q0 203 115.5 350.5t308.5 147.5q111 0 190 -43l-70 -377q-39 -211 58 -211 q68 0 118 108.5t50 300.5q0 209 -98.5 338t-296.5 129q-211 0 -370 -200.5t-159 -509.5q0 -252 119 -386.5t311 -134.5q137 0 266 74l31 -86q-141 -82 -325 -82q-209 0 -362 163t-153 452zM502 389q0 -113 71 -113q45 0 86 60.5t54 138.5l47 266q-18 10 -53 11 q-76 0 -140.5 -106.5t-64.5 -256.5z" />
<glyph unicode="A" horiz-adv-x="937" d="M16 0l299 1380h322l268 -1380h-260l-59 315h-248l-62 -315h-260zM365 524h196l-45 289q-14 88 -45 313h-6q-49 -311 -49 -315z" />
<glyph unicode="B" horiz-adv-x="989" d="M119 4v1356q119 27 305 26q236 0 350 -98q104 -88 105 -250q0 -96 -51.5 -177t-149.5 -124v-8q117 -33 181.5 -123t64.5 -207q0 -164 -103 -270q-127 -139 -452 -139q-144 0 -250 14zM387 201q16 -4 59 -4q86 0 142.5 53t56.5 153q0 98 -58.5 153.5t-142.5 57.5h-57v-413 zM387 813h57q72 0 121 55.5t49 139.5q0 80 -38.5 129t-118.5 49q-47 0 -70 -8v-365z" />
<glyph unicode="C" horiz-adv-x="808" d="M51 670q0 186 48 330.5t130 227.5t178.5 124t200.5 41q133 0 187 -37l-45 -226q-57 27 -125 27q-125 0 -207 -116.5t-82 -356.5q0 -236 79 -347.5t210 -111.5q63 0 129 21l26 -226q-70 -33 -209 -32q-254 0 -387 187.5t-133 494.5z" />
<glyph unicode="D" horiz-adv-x="1005" d="M119 4v1356q111 27 272 26q252 0 383 -122q180 -162 180 -557q0 -414 -192 -584q-135 -133 -422 -133q-96 0 -221 14zM387 213q12 -4 47 -4q106 0 174 121t68 387q0 455 -236 454q-37 0 -53 -6v-952z" />
<glyph unicode="E" horiz-adv-x="806" d="M119 0v1380h600v-233h-332v-318h315v-223h-315v-373h356v-233h-624z" />
<glyph unicode="F" horiz-adv-x="802" d="M119 0v1380h600v-233h-332v-354h311v-224h-311v-569h-268z" />
<glyph unicode="G" horiz-adv-x="966" d="M51 682q2 182 52.5 322.5t134.5 222.5t185 124t214 42q139 0 225 -41l-47 -232q-66 31 -158 31q-150 0 -238.5 -115.5t-88.5 -369.5q0 -231 73.5 -341t180.5 -110q39 0 53 6v334h-123v219h371v-737q-119 -49 -287 -49q-231 0 -369 137q-178 172 -178 533v24z" />
<glyph unicode="H" horiz-adv-x="1054" d="M119 0v1380h268v-553h281v553h268v-1380h-268v578h-281v-578h-268z" />
<glyph unicode="I" horiz-adv-x="507" d="M119 0v1380h268v-1380h-268z" />
<glyph unicode="J" horiz-adv-x="606" d="M-18 4l22 225q45 -10 88 -10q68 0 106 43t38 166v952h270v-940q0 -143 -32 -238.5t-91 -140.5t-120.5 -61t-145.5 -16t-135 20z" />
<glyph unicode="K" horiz-adv-x="940" d="M119 0v1380h268v-620h4l68 178l184 442h295l-309 -600l313 -780h-293l-200 571l-62 -112v-459h-268z" />
<glyph unicode="L" horiz-adv-x="778" d="M119 0v1380h268v-1153h354v-227h-622z" />
<glyph unicode="M" horiz-adv-x="1304" d="M68 0l100 1380h283l110 -499q76 -336 98 -484h5q25 182 88 484l108 499h283l84 -1380h-240l-24 483q-13 267 -14 399q0 33 1 58h-6q-35 -215 -88 -424l-119 -493h-190l-115 485q-57 240 -84 432h-6q-6 -217 -20 -461l-23 -479h-231z" />
<glyph unicode="N" horiz-adv-x="1056" d="M119 0v1380h246l213 -540q109 -281 147 -404h4q-27 473 -27 639v305h236v-1380h-246l-211 524q-102 264 -139 416h-4q16 -371 16 -631v-309h-235z" />
<glyph unicode="O" horiz-adv-x="985" d="M51 694q0 195 49.5 350.5t153.5 254t252 98.5q96 0 172 -41t123 -107.5t77.5 -158t43 -183.5t12.5 -192q0 -375 -120 -553t-327 -178q-150 0 -251 101t-143 255.5t-42 353.5zM330 690q0 -473 168 -473q156 0 155 485q0 461 -157 461q-80 0 -123 -125t-43 -348z" />
<glyph unicode="P" horiz-adv-x="935" d="M119 0v1360q123 27 280 26q260 0 375 -106q119 -104 119 -303q0 -205 -117 -332q-61 -63 -153.5 -97t-182.5 -34h-53v-514h-268zM387 733q12 -4 43 -4q98 0 147.5 61.5t49.5 163.5q0 96 -43 155.5t-131 59.5q-39 0 -66 -10v-426z" />
<glyph unicode="Q" horiz-adv-x="985" d="M51 694q0 297 119 500t338 203q119 0 206 -60.5t133 -164t66.5 -216t20.5 -241.5q0 -510 -207 -625v-10q39 -16 85 -34.5t101.5 -38t83.5 -30.5l-94 -202q-174 72 -354 180q-53 29 -66 29q-203 0 -317.5 187t-114.5 523zM330 696v-21q0 -206 39 -329q41 -129 127 -129h2 q156 0 155 485q0 461 -157 461q-80 0 -123 -131t-43 -336z" />
<glyph unicode="R" horiz-adv-x="962" d="M119 0v1360q137 27 293 26q256 0 368 -102q109 -98 109 -287q0 -115 -54.5 -207t-158.5 -139v-4q127 -49 168 -272q51 -299 88 -375h-281q-35 80 -67 330q-18 127 -53 174t-105 47h-39v-551h-268zM387 758h47q86 0 135 60.5t49 154.5q0 199 -167 205q-45 0 -64 -9v-411z " />
<glyph unicode="S" horiz-adv-x="806" d="M49 43l39 231q96 -53 227 -53q92 0 140.5 43t48.5 112.5t-40 116t-138 109.5q-133 82 -196.5 182.5t-63.5 202.5q0 174 114.5 290t321.5 116q135 0 217 -50l-43 -231q-74 47 -176 47q-82 0 -126 -42t-44 -101q0 -61 39 -104.5t151 -110.5q250 -152 250 -395 q0 -188 -127 -303t-330 -115q-170 0 -264 55z" />
<glyph unicode="T" horiz-adv-x="804" d="M25 1133v247h757v-247h-245v-1133h-269v1133h-243z" />
<glyph unicode="U" horiz-adv-x="1024" d="M111 528v852h268v-897q0 -264 131 -264q63 0 98 58.5t35 205.5v897h268v-850q0 -268 -100 -407t-299 -139q-211 0 -306 138t-95 406z" />
<glyph unicode="V" horiz-adv-x="925" d="M2 1380h297l98 -596q53 -324 72 -479h4q27 244 66 486l94 589h295l-316 -1380h-301z" />
<glyph unicode="W" horiz-adv-x="1390" d="M27 1380h278l68 -549q8 -72 16 -151.5t16.5 -178t14.5 -155.5h6q10 94 78 485l98 549h217l92 -544q49 -313 66 -490h4q23 227 53 488l68 546h262l-244 -1380h-276l-82 451q-31 178 -62 454h-4q-47 -324 -75 -454l-93 -451h-266z" />
<glyph unicode="X" horiz-adv-x="833" d="M-6 0l258 707l-248 673h281l80 -256q12 -43 35.5 -123.5t27.5 -97.5h4q27 102 57 225l70 252h268l-258 -686l273 -694h-277l-88 254q-31 94 -74 246h-4q-8 -29 -65 -250l-74 -250h-266z" />
<glyph unicode="Y" horiz-adv-x="823" d="M-31 1380h287l94 -329q47 -166 72 -293h4q20 129 63 299l82 323h279l-309 -841v-539h-269v528z" />
<glyph unicode="Z" horiz-adv-x="792" d="M23 0v158l436 983v6h-396v233h699v-198l-418 -942v-7h416v-233h-737z" />
<glyph unicode="[" horiz-adv-x="528" d="M102 -229v1634h379v-172h-176v-1290h176v-172h-379z" />
<glyph unicode="\" horiz-adv-x="477" d="M-35 1397h174l383 -1479h-174z" />
<glyph unicode="]" horiz-adv-x="528" d="M47 -57h176v1290h-176v172h379v-1634h-379v172z" />
<glyph unicode="^" horiz-adv-x="1220" d="M90 362l434 969h172l434 -969h-204l-312 740h-10l-311 -740h-203z" />
<glyph unicode="_" horiz-adv-x="1024" d="M0 -154h1024v-102h-1024v102z" />
<glyph unicode="`" horiz-adv-x="614" d="M59 1411h234l141 -287h-170z" />
<glyph unicode="a" horiz-adv-x="864" d="M39 289q0 125 68.5 212t169 122.5t221.5 38.5v22q0 61 -37 98t-105 37q-113 0 -204 -57l-50 180q127 76 312 76q88 0 153.5 -24.5t103.5 -62.5t60.5 -95.5t29.5 -111.5t7 -122v-373q0 -139 16 -229h-241l-15 98h-4q-82 -115 -221 -114q-115 0 -189.5 86t-74.5 219z M293 317q0 -68 29.5 -102.5t66.5 -34.5q35 0 66.5 22.5t44.5 63.5q6 20 6 47v174q-213 -4 -213 -170z" />
<glyph unicode="b" horiz-adv-x="915" d="M84 0q8 176 8 297v1120h268v-516h5q80 117 208 117q139 0 211 -137.5t72 -352.5q0 -256 -91 -400t-235 -144q-125 0 -196 135h-6l-15 -119h-229zM360 358q0 -39 11 -63q29 -92 92 -92q127 0 127 305q0 285 -129 285q-29 0 -53.5 -27t-36.5 -66q-10 -27 -11 -61v-281z" />
<glyph unicode="c" horiz-adv-x="661" d="M59 492q0 233 126 378.5t333 145.5q90 0 148 -27l-35 -211q-51 18 -101 19q-94 0 -149 -82t-55 -215q0 -137 53 -215t147 -78q59 0 101 20l22 -211q-61 -29 -170 -28q-195 0 -307.5 131t-112.5 373z" />
<glyph unicode="d" horiz-adv-x="915" d="M59 500q0 248 93.5 383t228.5 135q125 0 168 -100h4v499h268v-1120q0 -113 8 -297h-231l-14 113h-4q-29 -55 -86.5 -92t-122.5 -37q-152 0 -232 146.5t-80 369.5zM326 494q0 -139 34.5 -215t92.5 -76q66 0 92 88q8 18 8 61v264q0 39 -2 60q-8 49 -33.5 83t-62.5 34 q-129 0 -129 -299z" />
<glyph unicode="e" horiz-adv-x="858" d="M59 481q0 246 114 391.5t288 145.5q162 0 251 -123t89 -350q0 -100 -8 -139h-476q6 -213 213 -213q96 0 191 32l37 -192q-119 -45 -277 -45q-203 0 -312.5 128.5t-109.5 364.5zM319 594h238q0 229 -113 229q-59 0 -91 -70.5t-34 -158.5z" />
<glyph unicode="f" horiz-adv-x="585" d="M6 811v190h135v41q0 195 103 299q88 92 239 93q90 0 162 -23l-31 -209q-31 12 -82 12q-63 0 -92.5 -47t-29.5 -118v-48h174v-190h-174v-811h-269v811h-135z" />
<glyph unicode="g" horiz-adv-x="915" d="M59 492q0 244 96.5 385t241.5 141q125 0 185 -117h4l14 100h234q-10 -225 -11 -317v-571q0 -297 -121 -412q-117 -111 -325 -111q-139 0 -250 48l49 206q98 -43 193 -43q188 0 188 244v61h-4q-55 -100 -180 -100q-106 0 -180 74t-104 179.5t-30 232.5zM326 498 q0 -135 34.5 -208t94.5 -73q63 0 90 72q12 35 12 80v268q0 39 -10 74q-23 82 -86 82q-68 0 -101.5 -82t-33.5 -213z" />
<glyph unicode="h" horiz-adv-x="937" d="M94 0v1417h268v-520h5q31 49 86 86q59 35 135 35q256 0 256 -410v-608h-269v608q0 184 -98 185q-76 0 -104 -95q-10 -41 -11 -75v-623h-268z" />
<glyph unicode="i" horiz-adv-x="456" d="M88 1268q-2 66 39 105.5t98 39.5q59 0 98 -40t39 -105q2 -63 -38.5 -104.5t-102.5 -41.5q-57 0 -96 41.5t-37 104.5zM94 0v1001h268v-1001h-268z" />
<glyph unicode="j" horiz-adv-x="458" d="M-80 -197q94 12 131 54q29 29 37 86t8 180v878h271v-929q0 -162 -33 -252t-101 -144q-106 -86 -292 -86zM94 1268q-2 66 38 105.5t99.5 39.5t98.5 -40t39 -105q0 -63 -40 -104.5t-102 -41.5q-57 0 -96 41.5t-37 104.5z" />
<glyph unicode="k" horiz-adv-x="845" d="M92 0v1417h268v-854h5q29 90 51 139l129 299h289l-242 -419l256 -582h-299l-143 412l-46 -86v-326h-268z" />
<glyph unicode="l" horiz-adv-x="460" d="M94 0v1417h268v-1417h-268z" />
<glyph unicode="m" horiz-adv-x="1392" d="M86 1001h233l13 -116h4q90 133 239 133q164 0 220 -135h4q39 61 100 100q63 35 141 35q258 0 258 -383v-635h-266v590q0 100 -19.5 153.5t-74.5 53.5q-72 0 -100 -92q-8 -29 -9 -70v-635h-266v629q0 168 -92 168q-72 0 -100 -90q-10 -31 -11 -76v-631h-266v700 q0 63 -4 169.5t-4 131.5z" />
<glyph unicode="n" horiz-adv-x="937" d="M86 1001h231l13 -114h4q88 131 244 131q266 0 266 -375v-643h-269v627q0 166 -98 166q-72 0 -100 -91q-14 -35 -15 -92v-610h-268v700q0 63 -4 169.5t-4 131.5z" />
<glyph unicode="o" horiz-adv-x="882" d="M59 498q0 254 113 387t274 133q176 0 277.5 -138.5t101.5 -375.5q0 -147 -37.5 -256t-98 -163t-122 -77.5t-125.5 -23.5q-180 0 -281.5 135t-101.5 379zM326 504q0 -315 123 -316q109 0 108 316q0 311 -113 311q-118 0 -118 -311z" />
<glyph unicode="p" horiz-adv-x="915" d="M84 1001h233l15 -114h4q66 131 209 131q156 0 233.5 -145.5t77.5 -370.5q0 -252 -94 -385t-232 -133q-106 0 -165 98h-5v-475h-268v1077q0 129 -8 317zM360 367q0 -57 15 -86q27 -78 86 -78q127 0 127 297q0 293 -125 293q-31 0 -56.5 -26t-33.5 -60q-12 -25 -13 -72 v-268z" />
<glyph unicode="q" horiz-adv-x="915" d="M59 479q0 248 95.5 393.5t242.5 145.5q127 0 185 -121l4 -2l14 106h231q-8 -180 -8 -317v-1077h-268v479h-4q-70 -102 -191 -102q-139 0 -220 142t-81 353zM328 500q0 -139 32.5 -218t94.5 -79q66 0 90 88q10 29 10 65v279q0 37 -8 59q-10 45 -36 72t-56 27 q-127 0 -127 -293z" />
<glyph unicode="r" horiz-adv-x="602" d="M84 1001h233l15 -145h6q33 78 87 120t112 42q41 0 57 -4v-266q-16 4 -57 4q-49 0 -96.5 -36t-67.5 -108q-10 -37 -11 -100v-508h-270v700q0 117 -8 301z" />
<glyph unicode="s" horiz-adv-x="663" d="M37 45l49 197q84 -53 180 -54q109 0 109 91q0 39 -25.5 67.5t-91.5 67.5q-203 115 -203 288q0 137 91.5 226.5t238.5 89.5q104 0 203 -45l-47 -197q-72 41 -140 41q-49 0 -74.5 -24.5t-25.5 -61.5q0 -35 23.5 -59.5t93.5 -65.5q203 -115 203 -303q0 -150 -97.5 -232.5 t-257.5 -82.5q-151 0 -229 57z" />
<glyph unicode="t" horiz-adv-x="636" d="M23 811v190h118v179l269 84v-263h196v-190h-196v-457q0 -145 102 -145q37 0 70 6l2 -209q-66 -18 -164 -18q-127 0 -193 63q-86 82 -86 287v473h-118z" />
<glyph unicode="u" horiz-adv-x="925" d="M86 395v606h270v-577q0 -215 101 -215q61 0 86 67q16 33 16 86v639h268v-696q0 -117 9 -305h-232l-14 106h-4q-86 -123 -232 -122q-139 0 -203.5 102t-64.5 309z" />
<glyph unicode="v" horiz-adv-x="808" d="M10 1001h285l76 -446q31 -195 43 -281h4q14 117 39 281l78 446h264l-269 -1001h-247z" />
<glyph unicode="w" horiz-adv-x="1261" d="M10 1001h287l53 -432q25 -188 35 -303h6q27 147 55 299l89 436h206l86 -426q41 -221 52 -309h6q8 135 35 307l61 428h264l-258 -1001h-227l-76 350q-35 152 -51 312h-4q-14 -133 -58 -314l-86 -348h-229z" />
<glyph unicode="x" horiz-adv-x="811" d="M12 0l224 498l-222 503h291l62 -178q27 -76 49 -168h4q45 164 47 168l59 178h271l-228 -491l232 -510h-293l-68 188q-27 78 -49 154h-4q-6 -29 -23.5 -83t-21.5 -71l-61 -188h-269z" />
<glyph unicode="y" horiz-adv-x="800" d="M10 1001h289l98 -520q8 -43 27 -168h4q4 27 25 164l84 524h262l-205 -772q-94 -358 -223 -512q-102 -121 -228 -157l-82 231q66 23 134 84q55 53 84 119q14 33 14 43q0 12 -8 37z" />
<glyph unicode="z" horiz-adv-x="718" d="M37 0v168l246 446q10 16 47 78t47 84v6h-309v219h602v-182l-240 -430l-34 -56q-22 -36 -37 -62.5t-25 -45.5v-6h344v-219h-641z" />
<glyph unicode="{" horiz-adv-x="528" d="M20 508v162q135 0 136 116q0 51 -12.5 158t-12.5 164q0 145 82 221t229 76h39v-166h-30q-111 -8 -111 -139q0 -49 8 -135t8 -121q0 -201 -155 -250v-4q156 -49 155 -254q0 -39 -8 -129q-8 -82 -8 -127q0 -133 115 -143h26v-166h-43q-137 0 -222 70.5t-85 224.5 q0 55 12 165q12 106 13 162q0 47 -31 81t-105 34z" />
<glyph unicode="|" horiz-adv-x="446" d="M125 -512v2048h199v-2048h-199z" />
<glyph unicode="}" horiz-adv-x="528" d="M47 -63h27q115 10 114 143q0 45 -8 127q-8 90 -8 129q0 205 156 254v4q-156 49 -156 250q0 35 8 121t8 135q0 131 -110 139h-31v166h37q147 0 230 -76t83 -221q0 -57 -12 -163.5t-12 -158.5q0 -117 135 -116v-162q-74 0 -104.5 -34t-30.5 -81q0 -55 12 -162 q12 -111 12 -165q0 -154 -85 -224.5t-222 -70.5h-43v166z" />
<glyph unicode="~" horiz-adv-x="1220" d="M117 412q-2 178 80 262t196 84q106 0 273 -103q84 -51 116.5 -67.5t63.5 -16.5q88 0 88 168h170q8 -166 -57.5 -257t-192.5 -91q-68 0 -123 19.5t-145 74.5q-154 96 -203 97q-94 0 -94 -170h-172z" />
<glyph unicode="&#xa2;" d="M113 664q0 180 89 308t236 165v206h172v-192q90 -6 144 -35l-33 -205q-66 33 -154 33q-86 0 -137 -81t-51 -204q0 -125 56.5 -199.5t144.5 -74.5q90 0 161 31l21 -201q-55 -29 -156 -31v-198h-172v204q-141 33 -225 140q-96 127 -96 334z" />
<glyph unicode="&#xa3;" d="M74 0v168q86 35 134 121t48 176q0 78 -6 110h-162v179h133q-23 96 -22 198q0 168 102 282t277 114q100 0 170 -35l-41 -217q-53 27 -115 26q-68 0 -103.5 -45t-35.5 -119q0 -82 22 -204h213v-179h-188q6 -102 -19 -180q-37 -104 -102 -166v-4h407v-225h-712z" />
<glyph unicode="&#xa5;" d="M12 1331h264l109 -370q47 -150 59 -222h5q25 111 57 226l108 366h248l-248 -598h211v-137h-268v-121h268v-137h-268v-338h-246v338h-266v137h266v121h-266v137h209z" />
<glyph unicode="&#xa8;" horiz-adv-x="614" d="M2 1278q0 55 36 93t87 38q53 0 88 -37t35 -94t-35 -94t-88 -37h-2q-49 0 -85 38t-36 93zM365 1278q0 55 36.5 93t88 38t86 -37t34.5 -94t-33.5 -94t-87.5 -37h-2q-51 0 -86.5 38t-35.5 93z" />
<glyph unicode="&#xa9;" horiz-adv-x="1386" d="M63 696q0 262 184.5 446.5t448.5 184.5h2q260 0 442.5 -184.5t182.5 -446.5q0 -264 -182.5 -449.5t-444.5 -185.5q-264 0 -448.5 185.5t-184.5 449.5zM197 694q0 -215 144 -366.5t353 -151.5q207 -2 351.5 150.5t144.5 367.5t-144.5 366.5t-351.5 151.5h-2 q-207 0 -351 -151.5t-144 -366.5zM346 684q0 174 114.5 277.5t295.5 103.5q66 0 129 -17.5t86 -35.5l-31 -111q-80 43 -190 43q-117 0 -187.5 -69.5t-70.5 -186.5q0 -115 68.5 -184.5t180.5 -69.5q109 0 195 43l31 -106q-106 -57 -248 -58q-170 0 -271.5 105.5t-101.5 265.5 z" />
<glyph unicode="&#xab;" horiz-adv-x="784" d="M33 516l215 379h194l-221 -379l221 -379h-194zM360 516l215 379h195l-221 -379l221 -379h-192z" />
<glyph unicode="&#xad;" horiz-adv-x="530" d="M61 469v193h408v-193h-408z" />
<glyph unicode="&#xae;" horiz-adv-x="765" d="M55 1075q0 135 95.5 231.5t232.5 96.5h2q135 0 230.5 -96.5t95.5 -231.5q0 -137 -95.5 -233.5t-232.5 -96.5t-232.5 96.5t-95.5 233.5zM152 1073.5q0 -104.5 66.5 -175.5t164.5 -71q98 -2 164.5 71t66.5 177.5t-66.5 176t-164.5 71.5h-2q-98 0 -163.5 -72.5t-65.5 -177z M258 920v301q55 12 123 12q74 0 113 -25q31 -20 30 -67q0 -23 -18.5 -41.5t-48.5 -26.5v-4q47 -14 61 -78q10 -49 19 -71h-93q-10 12 -22 63q-6 47 -49 47h-31v-110h-84zM346 1092h27q55 0 55 36q0 39 -51 39q-18 0 -31 -4v-71z" />
<glyph unicode="&#xb4;" horiz-adv-x="614" d="M213 1124l141 287h234l-207 -287h-168z" />
<glyph unicode="&#xb8;" horiz-adv-x="614" d="M117 -381l39 115q57 -29 108 -29q63 0 64 51q0 63 -140 76l80 178h142l-50 -100q57 -10 97.5 -50t40.5 -100q0 -92 -64.5 -135t-163.5 -43q-83 0 -153 37z" />
<glyph unicode="&#xbb;" horiz-adv-x="784" d="M12 137l221 379l-221 379h193l217 -379l-213 -379h-197zM342 137l221 379l-221 379h193l217 -379l-215 -379h-195z" />
<glyph unicode="&#xc6;" horiz-adv-x="1218" d="M-14 0l415 1380h756l-2 -233h-362l18 -340h334v-223h-311l20 -351h334v-233h-570l-24 377h-252l-92 -377h-264zM391 586h182l-16 342q-4 88 -16 266h-6q-14 -66 -42 -183.5t-34 -142.5z" />
<glyph unicode="&#xe6;" horiz-adv-x="1296" d="M39 299q0 172 133 259t320 89v31q0 61 -41 101t-115 40q-102 0 -184 -55l-50 178q123 76 285 76q195 0 258 -158h4q90 158 273 158q145 0 231 -126t86 -347q0 -37 -8 -107h-475q0 -133 60.5 -193.5t158.5 -60.5q102 0 184 41l37 -186q-111 -55 -268 -55q-104 0 -189.5 45 t-126.5 129h-6q-102 -174 -291 -174q-121 0 -198.5 89t-77.5 226zM279 309q0 -61 30.5 -93t71.5 -32q35 0 64.5 23.5t41.5 64.5q8 23 9 56v151q-86 0 -151.5 -38t-65.5 -132zM756 612h237q2 92 -25.5 155.5t-82.5 63.5q-59 0 -93 -69.5t-36 -149.5z" />
<glyph unicode="&#x2c6;" horiz-adv-x="614" d="M39 1124l176 287h186l177 -287h-185l-82 164h-4l-82 -164h-186z" />
<glyph unicode="&#x2c9;" horiz-adv-x="614" d="M90 1192v151h436v-151h-436z" />
<glyph unicode="&#x2d8;" horiz-adv-x="614" d="M63 1391h134q6 -51 34.5 -80t73.5 -29q53 0 83 30.5t32 78.5h131q4 -111 -66.5 -186t-181.5 -75q-109 0 -176.5 75t-63.5 186z" />
<glyph unicode="&#x2da;" horiz-adv-x="614" d="M27 1284q0 84 55 138.5t160 54.5q100 0 153.5 -51.5t53.5 -135.5q0 -82 -56.5 -135t-152.5 -53q-102 0 -157.5 51t-55.5 131zM156 1286q0 -33 19.5 -63.5t60.5 -30.5q86 0 86 98q0 96 -89 96q-41 0 -59 -30.5t-18 -69.5z" />
<glyph unicode="&#x2dc;" horiz-adv-x="614" d="M57 1141q0 106 37 173.5t109 67.5q43 0 116 -36q53 -33 76 -33t33 15t12 61h119q0 -233 -143 -234q-43 0 -109 33q-12 6 -28.5 15t-27.5 14.5t-24 5.5q-47 0 -47 -82h-123z" />
<glyph unicode="&#x2dd;" horiz-adv-x="614" d="M100 1124l148 287h194l-204 -287h-138zM383 1124l147 287h195l-205 -287h-137z" />
<glyph unicode="&#x398;" horiz-adv-x="1001" d="M51 694q0 299 121 501t342 202q121 0 209 -60.5t136 -164t69.5 -217t21.5 -240.5q0 -373 -121.5 -552t-330.5 -179h-2q-152 0 -254.5 101t-146.5 255.5t-44 353.5zM326 696q0 -221 44 -352t134 -131h2q170 0 170 489q0 205 -41 335t-131 130q-88 0 -133 -133t-45 -338z M385 575v250h229v-250h-229z" />
<glyph unicode="&#x3a8;" horiz-adv-x="1175" d="M66 948v432h243v-430q0 -172 38 -248.5t126 -93.5v772h229v-772q84 10 123 111.5t39 316.5v344h246v-342q0 -573 -403 -639v-399h-238v399q-197 31 -300 157t-103 392z" />
<glyph unicode="&#x3b8;" horiz-adv-x="882" d="M59 721q0 193 34 337t92.5 223t123 116t137.5 37q174 0 275.5 -174.5t101.5 -538.5q0 -737 -381 -737h-2q-381 0 -381 737zM315 616q0 -223 35 -329.5t92 -106.5q125 0 125 436h-252zM315 829h250q0 207 -34.5 307.5t-90.5 100.5q-53 0 -89 -102.5t-36 -305.5z" />
<glyph unicode="&#x3c8;" horiz-adv-x="1175" d="M72 1001h233q18 -43 19 -204v-318q0 -274 149 -305v1038h240v-1038q78 4 117.5 127t39.5 322q0 262 -43 378h224q61 -137 61 -352q0 -139 -18.5 -246.5t-60.5 -202t-122 -149.5t-194 -67v-377h-246v377q-78 12 -139.5 36.5t-121.5 75.5t-93 144.5t-33 222.5v274 q0 186 -12 264z" />
<glyph unicode="&#x400;" horiz-adv-x="806" d="M129 1806h234l141 -287h-170zM119 0v1380h600v-233h-332v-318h315v-223h-315v-373h356v-233h-624z" />
<glyph unicode="&#x401;" horiz-adv-x="806" d="M115 1593.5q0 55.5 35.5 93t85 37.5t85 -37.5t35.5 -93t-35.5 -93.5t-84.5 -38h-3q-49 0 -83.5 38t-34.5 93.5zM119 0v1380h600v-233h-332v-318h315v-223h-315v-373h356v-233h-624zM492 1593.5q0 55.5 35.5 93t84.5 37.5q51 0 86 -37.5t35 -93t-34.5 -93.5t-86.5 -38h-2 q-49 0 -83.5 38t-34.5 93.5z" />
<glyph unicode="&#x402;" horiz-adv-x="1101" d="M25 1133v247h843v-247h-338v-269h5q78 39 155 39q104 0 183 -58.5t120 -156.5q61 -139 62 -356q0 -254 -115 -414q-119 -168 -287 -203l-57 238q72 25 121 90q57 76 57 295q0 164 -41 250q-41 84 -125 84q-43 0 -78 -21v-651h-268v1133h-237z" />
<glyph unicode="&#x403;" horiz-adv-x="778" d="M119 0v1380h637v-233h-369v-1147h-268zM295 1454l168 232h272l-250 -232h-190z" />
<glyph unicode="&#x404;" horiz-adv-x="825" d="M51 676q0 133 29 255t87 229.5t162.5 172t243.5 64.5q35 0 64 -3t54.5 -11.5t36.5 -12.5t36 -14l24 -13l-45 -233q-53 45 -147 45q-133 0 -197.5 -106.5t-72.5 -241.5h376v-236h-372q35 -344 264 -344q92 0 170 37l35 -225q-100 -55 -238 -55q-231 0 -370.5 184 t-139.5 508z" />
<glyph unicode="&#x405;" horiz-adv-x="806" d="M49 43l39 231q96 -53 227 -53q92 0 140.5 43t48.5 112.5t-40 116t-138 109.5q-133 82 -196.5 182.5t-63.5 202.5q0 174 114.5 290t321.5 116q135 0 217 -50l-43 -231q-74 47 -176 47q-82 0 -126 -42t-44 -101q0 -61 39 -104.5t151 -110.5q250 -152 250 -395 q0 -188 -127 -303t-330 -115q-170 0 -264 55z" />
<glyph unicode="&#x406;" horiz-adv-x="507" d="M119 0v1380h268v-1380h-268z" />
<glyph unicode="&#x407;" horiz-adv-x="507" d="M-57 1593.5q0 55.5 35.5 93t85 37.5t85 -37.5t35.5 -93t-35.5 -93.5t-85.5 -38h-2q-49 0 -83.5 38t-34.5 93.5zM119 0v1380h268v-1380h-268zM319 1593.5q0 55.5 36 93t85 37.5q51 0 86 -37.5t35 -93t-34.5 -93.5t-86.5 -38h-2q-49 0 -84 38t-35 93.5z" />
<glyph unicode="&#x408;" horiz-adv-x="606" d="M-18 4l22 225q45 -10 88 -10q68 0 106 43t38 166v952h270v-940q0 -143 -32 -238.5t-91 -140.5t-120.5 -61t-145.5 -16t-135 20z" />
<glyph unicode="&#x409;" horiz-adv-x="1458" d="M-18 205q59 20 90 55q55 57 75.5 174t20.5 330v616h700v-514q43 6 111 6q193 0 311.5 -115.5t118.5 -305.5q0 -193 -115 -314q-141 -147 -442 -147q-139 0 -248 14v1143h-188v-365q0 -281 -40 -464t-159 -277q-84 -63 -178 -64zM870 209q20 -4 60 -4q94 0 147 65.5 t53 165.5q0 98 -52 159.5t-144 61.5q-33 0 -64 -6v-442z" />
<glyph unicode="&#x40a;" horiz-adv-x="1490" d="M119 0v1380h268v-536h248v536h266v-516q45 6 109 6q193 0 311.5 -114.5t118.5 -304.5q0 -195 -115 -314q-137 -147 -440 -147q-143 0 -250 14v602h-248v-606h-268zM903 209q18 -4 60 -4q96 0 148 65.5t52 163.5t-53 158.5t-145 60.5q-35 0 -62 -6v-438z" />
<glyph unicode="&#x40b;" horiz-adv-x="1140" d="M25 1133v247h806v-247h-311v-293h6q98 80 222 80q162 0 229 -117q63 -104 63 -295v-508h-266v510q0 104 -39 145q-33 39 -90 39q-74 0 -125 -47v-647h-270v1133h-225z" />
<glyph unicode="&#x40c;" horiz-adv-x="929" d="M119 0v1380h262v-600h20l226 600h295l-318 -639q98 -37 146.5 -120.5t80.5 -229.5q80 -348 95 -391h-269q-25 76 -75 319q-29 137 -66 202t-115 65h-20v-586h-262zM352 1444l168 231h273l-250 -231h-191z" />
<glyph unicode="&#x40d;" horiz-adv-x="1050" d="M235 1806h234l141 -287h-170zM119 0v1380h237v-305q0 -262 -26 -635h4q49 147 149 406l203 534h244v-1380h-236v309q0 252 17 623h-4q-37 -150 -138 -406l-202 -526h-248z" />
<glyph unicode="&#x40e;" horiz-adv-x="811" d="M-23 1380h289l127 -528q29 -127 45 -221h6q6 35 17.5 115.5t15.5 109.5l92 524h273l-205 -745q-96 -354 -170 -481q-111 -180 -281 -181q-68 0 -108 13l10 219q37 -6 66 -6q49 0 90 42t57 99q14 35 -2 80zM160 1675h170q4 -59 24.5 -87.5t65.5 -28.5q84 0 94 116h170 q-14 -127 -80.5 -181t-185.5 -54q-242 -1 -258 235z" />
<glyph unicode="&#x40f;" horiz-adv-x="1048" d="M119 0v1380h268v-1147h275v1147h268v-1380h-285l-12 -317h-219l-13 317h-282z" />
<glyph unicode="&#x410;" horiz-adv-x="937" d="M16 0l299 1380h322l268 -1380h-260l-59 315h-248l-62 -315h-260zM365 524h196l-45 289q-14 88 -45 313h-6q-49 -311 -49 -315z" />
<glyph unicode="&#x411;" horiz-adv-x="972" d="M119 4v1376h704v-229h-438v-289q49 10 109 10q180 0 299 -102q131 -115 131 -319q0 -199 -115 -314q-139 -147 -440 -147q-144 0 -250 14zM387 209q18 -4 59 -4q94 0 148 65q51 63 51 160q0 100 -53 160q-61 68 -143 67q-35 0 -62 -6v-442z" />
<glyph unicode="&#x412;" horiz-adv-x="989" d="M119 4v1356q119 27 305 26q236 0 350 -98q104 -88 105 -250q0 -96 -51.5 -177t-149.5 -124v-8q117 -33 181.5 -123t64.5 -207q0 -164 -103 -270q-127 -139 -452 -139q-144 0 -250 14zM387 201q16 -4 59 -4q86 0 142.5 53t56.5 153q0 98 -58.5 153.5t-142.5 57.5h-57v-413 zM387 813h57q72 0 121 55.5t49 139.5q0 80 -38.5 129t-118.5 49q-47 0 -70 -8v-365z" />
<glyph unicode="&#x413;" horiz-adv-x="778" d="M119 0v1380h637v-233h-369v-1147h-268z" />
<glyph unicode="&#x414;" horiz-adv-x="1101" d="M20 225l99 4q57 141 94 322q39 231 39 481v348h711v-1151l108 -4l-12 -526h-203l-10 301h-600l-10 -301h-205zM395 236h301v911h-198v-160q0 -250 -33 -465q-29 -167 -70 -286z" />
<glyph unicode="&#x415;" horiz-adv-x="806" d="M119 0v1380h600v-233h-332v-318h315v-223h-315v-373h356v-233h-624z" />
<glyph unicode="&#x416;" horiz-adv-x="1429" d="M4 0q43 123 92 356q16 74 36 129.5t52.5 116t83.5 98t119 50.5l-371 630h303l254 -594h19v594h244v-594h20l254 594h303l-371 -630q68 -12 119 -50t84 -98.5t52.5 -116t35.5 -129.5q59 -264 92 -356h-260q-12 33 -75 289q-14 61 -28.5 103t-40.5 92.5t-67 76t-94 25.5 h-24v-586h-244v586h-21q-45 0 -80.5 -19.5t-58 -46t-42 -72t-30 -78t-22.5 -81.5q-6 -23 -20.5 -89.5t-28 -113.5t-27.5 -86h-258z" />
<glyph unicode="&#x417;" horiz-adv-x="819" d="M25 45l38 219q94 -55 213 -55q104 0 162 53t58 139q0 109 -77 162t-196 53h-39v203h27q100 0 173 48t73 139q0 74 -45 117.5t-129 43.5q-92 0 -193 -57l-45 207q117 80 305 80q186 0 285.5 -97.5t99.5 -242.5q0 -109 -65.5 -198t-167.5 -116v-4q125 -25 199.5 -116 t74.5 -230q0 -190 -138 -299.5t-335 -109.5q-165 0 -278 61z" />
<glyph unicode="&#x418;" horiz-adv-x="1050" d="M119 0v1380h237v-305q0 -262 -26 -635h4q49 147 149 406l203 534h244v-1380h-236v309q0 252 17 623h-4q-37 -150 -138 -406l-202 -526h-248z" />
<glyph unicode="&#x419;" horiz-adv-x="1050" d="M119 0v1380h237v-305q0 -262 -26 -635h4q49 147 149 406l203 534h244v-1380h-236v309q0 252 17 623h-4q-37 -150 -138 -406l-202 -526h-248zM262 1667h170q4 -59 24.5 -88t65.5 -29q84 0 94 117h170q-14 -127 -80.5 -181t-185.5 -54q-242 -1 -258 235z" />
<glyph unicode="&#x41a;" horiz-adv-x="929" d="M119 0v1380h262v-600h20l226 600h295l-318 -639q98 -37 146.5 -120.5t80.5 -229.5q80 -348 95 -391h-269q-25 76 -75 319q-29 137 -66 202t-115 65h-20v-586h-262z" />
<glyph unicode="&#x41b;" horiz-adv-x="1009" d="M-18 205q55 14 92 47q57 59 77.5 176t20.5 330v622h719v-1380h-268v1147h-205v-365q0 -285 -38 -465t-157 -272q-84 -68 -184 -68z" />
<glyph unicode="&#x41c;" horiz-adv-x="1304" d="M68 0l100 1380h283l110 -499q76 -336 98 -484h5q25 182 88 484l108 499h283l84 -1380h-240l-24 483q-16 334 -13 457h-6q-35 -215 -88 -424l-119 -493h-190l-115 485q-57 240 -84 432h-6q-6 -217 -20 -461l-23 -479h-231z" />
<glyph unicode="&#x41d;" horiz-adv-x="1054" d="M119 0v1380h268v-553h281v553h268v-1380h-268v578h-281v-578h-268z" />
<glyph unicode="&#x41e;" horiz-adv-x="985" d="M51 694q0 195 49.5 350.5t153.5 254t252 98.5q96 0 172 -41t123 -107.5t77.5 -158t43 -183.5t12.5 -192q0 -375 -120 -553t-327 -178q-150 0 -251 101t-143 255.5t-42 353.5zM330 690q0 -473 168 -473q156 0 155 485q0 461 -157 461q-80 0 -123 -125t-43 -348z" />
<glyph unicode="&#x41f;" horiz-adv-x="1048" d="M119 0v1380h811v-1380h-268v1147h-275v-1147h-268z" />
<glyph unicode="&#x420;" horiz-adv-x="935" d="M119 0v1360q123 27 280 26q260 0 375 -106q119 -104 119 -303q0 -205 -117 -332q-61 -63 -153.5 -97t-182.5 -34h-53v-514h-268zM387 733q12 -4 43 -4q98 0 147.5 61.5t49.5 163.5q0 96 -43 155.5t-131 59.5q-39 0 -66 -10v-426z" />
<glyph unicode="&#x421;" horiz-adv-x="808" d="M51 670q0 186 48 330.5t130 227.5t178.5 124t200.5 41q133 0 187 -37l-45 -226q-57 27 -125 27q-125 0 -207 -116.5t-82 -356.5q0 -236 79 -347.5t210 -111.5q63 0 129 21l26 -226q-70 -33 -209 -32q-254 0 -387 187.5t-133 494.5z" />
<glyph unicode="&#x422;" horiz-adv-x="804" d="M25 1133v247h757v-247h-245v-1133h-269v1133h-243z" />
<glyph unicode="&#x423;" horiz-adv-x="811" d="M-23 1380h289l127 -528q29 -127 45 -221h6q6 35 17.5 115.5t15.5 109.5l92 524h273l-205 -745q-96 -354 -170 -481q-111 -180 -281 -181q-68 0 -108 13l10 219q37 -6 66 -6q49 0 90 42t57 99q14 35 -2 80z" />
<glyph unicode="&#x424;" horiz-adv-x="1212" d="M51 694q0 283 129 443.5t309 187.5v105h236v-105q197 -27 316.5 -183.5t119.5 -441.5q0 -301 -118.5 -454.5t-317.5 -182.5v-112h-238v112q-201 31 -318.5 182.5t-117.5 448.5zM319 690q0 -199 49.5 -306.5t120.5 -123.5v870q-72 -23 -121 -127t-49 -313zM723 260 q170 35 170 438q0 213 -50 314.5t-120 117.5v-870z" />
<glyph unicode="&#x425;" horiz-adv-x="833" d="M-6 0l258 707l-248 673h281l80 -256q12 -43 35.5 -123.5t27.5 -97.5h4q27 102 57 225l70 252h268l-258 -686l273 -694h-277l-88 254q-31 94 -74 246h-4q-8 -29 -65 -250l-74 -250h-266z" />
<glyph unicode="&#x426;" horiz-adv-x="1067" d="M119 0v1380h268v-1144h272v1144h269v-1151l108 -4l-12 -526h-203l-12 301h-690z" />
<glyph unicode="&#x427;" horiz-adv-x="1017" d="M109 883v497h264v-467q0 -190 151 -190q70 0 111 29v628h264v-1396h-264v559h-6q-104 -47 -197 -47q-323 0 -323 387z" />
<glyph unicode="&#x428;" horiz-adv-x="1474" d="M119 0v1380h264v-1144h223v1144h262v-1144h224v1144h264v-1380h-1237z" />
<glyph unicode="&#x429;" horiz-adv-x="1495" d="M119 0v1380h264v-1144h223v1144h262v-1144h224v1144h264v-1151l108 -4l-12 -526h-203l-12 301h-1118z" />
<glyph unicode="&#x42a;" horiz-adv-x="1167" d="M23 1151v229h557v-514q43 6 108 6q195 0 312.5 -115.5t117.5 -305.5q0 -197 -112 -314q-139 -147 -443 -147q-141 0 -250 14v1147h-290zM582 209q18 -4 59 -4q94 0 147.5 64.5t53.5 160.5q0 102 -53.5 164.5t-145.5 62.5q-33 0 -61 -6v-442z" />
<glyph unicode="&#x42b;" horiz-adv-x="1394" d="M119 4v1376h266v-516q43 8 100 8q186 0 303 -113.5t117 -301.5q0 -199 -114 -320q-141 -147 -439 -147q-127 0 -233 14zM387 209q18 -4 49 -4q84 0 137.5 65.5t53.5 159.5q0 100 -50.5 163.5t-132.5 63.5q-33 0 -57 -6v-442zM1006 0v1380h270v-1380h-270z" />
<glyph unicode="&#x42c;" horiz-adv-x="972" d="M119 4v1376h266v-514q33 6 109 6q199 0 314.5 -112.5t115.5 -308.5q0 -195 -113 -314q-143 -147 -442 -147q-144 0 -250 14zM387 209q18 -4 51 -4q98 0 152.5 65.5t54.5 163.5t-51 160.5t-145 62.5q-37 0 -62 -6v-442z" />
<glyph unicode="&#x42d;" horiz-adv-x="833" d="M20 37l50 223q82 -35 155 -35q139 0 203 104.5t76 252.5h-373v237h377q-2 127 -65.5 232.5t-186.5 105.5q-82 0 -158 -35l-61 215q123 59 256 60q115 0 203 -45t141 -115t87 -167t46 -190.5t12 -195.5q0 -317 -141 -508.5t-377 -191.5q-133 0 -244 53z" />
<glyph unicode="&#x42e;" horiz-adv-x="1388" d="M119 0v1380h264v-555h125q27 256 136.5 414t289.5 158q111 0 192.5 -60.5t125.5 -164t64.5 -217t20.5 -240.5q0 -373 -113.5 -552t-308.5 -179q-186 0 -289.5 164.5t-119.5 437.5h-123v-586h-264zM770 696q0 -479 152 -479h2q143 0 143 485q0 461 -145 461 q-76 0 -114 -131t-38 -336z" />
<glyph unicode="&#x42f;" horiz-adv-x="954" d="M12 0q25 55 54 147q10 37 27.5 142.5t42 177.5t69.5 121q39 43 98 59v4q-113 35 -175 120t-62 212q0 195 127 301q125 102 350 102q172 0 293 -26v-1360h-269v551h-28q-70 0 -111 -51q-27 -35 -43 -101.5t-29.5 -159t-19.5 -118.5q-20 -82 -39 -121h-285zM336 973 q0 -98 53 -156.5t141 -58.5q23 0 37 2v411q-43 6 -53 7q-88 0 -133 -59.5t-45 -145.5z" />
<glyph unicode="&#x430;" horiz-adv-x="864" d="M39 289q0 125 68.5 212t169 122.5t221.5 38.5v22q0 61 -37 98t-105 37q-113 0 -204 -57l-50 180q127 76 312 76q88 0 153.5 -24.5t103.5 -62.5t60.5 -95.5t29.5 -111.5t7 -122v-373q0 -139 16 -229h-241l-15 98h-4q-82 -115 -221 -114q-115 0 -189.5 86t-74.5 219z M293 317q0 -68 29.5 -102.5t66.5 -34.5q35 0 66.5 22.5t44.5 63.5q6 20 6 47v174q-213 -4 -213 -170z" />
<glyph unicode="&#x431;" horiz-adv-x="925" d="M68 602q0 360 114 543q117 193 367 237q217 43 239 52l-18 -228q-37 -16 -156 -37q-115 -16 -175 -52t-95 -95q-43 -78 -53 -180h6q33 68 98.5 113.5t145.5 45.5q147 0 236 -126.5t89 -366.5q0 -229 -102 -380t-293 -151q-94 0 -167 39t-117 99.5t-71.5 145.5t-37.5 167 t-10 174zM326 516q0 -51 6 -101t20.5 -104.5t44 -88.5t70.5 -34q43 0 72.5 33t42 86t17.5 98.5t5 90.5v2q0 70 -10 131t-44 113.5t-85 52.5q-80 0 -115 -103q-24 -72 -24 -176z" />
<glyph unicode="&#x432;" horiz-adv-x="925" d="M94 -2v999q137 20 291 21q442 0 442 -252q0 -90 -55 -150.5t-137 -80.5v-5q111 -18 173 -82.5t62 -154.5q0 -94 -51 -158.5t-139 -94.5t-168 -41t-172 -11q-150 0 -246 10zM350 168q27 -6 68 -6q80 0 133 31.5t53 99t-53 101.5t-137 34h-64v-260zM352 602h62q70 0 117 33 t47 92q0 117 -158 117q-37 0 -68 -6v-236z" />
<glyph unicode="&#x433;" horiz-adv-x="671" d="M94 0v1001h555v-221h-289v-780h-266z" />
<glyph unicode="&#x434;" horiz-adv-x="985" d="M20 193l82 4q47 76 74 204q33 152 33 328v272h655v-804l92 -4l-10 -469h-203l-12 276h-485l-15 -276h-200zM358 203h242v592h-156v-84q0 -154 -24 -305q-21 -117 -62 -203z" />
<glyph unicode="&#x435;" horiz-adv-x="858" d="M59 481q0 246 114 391.5t288 145.5q162 0 251 -123t89 -350q0 -100 -8 -139h-476q6 -213 213 -213q96 0 191 32l37 -192q-119 -45 -277 -45q-203 0 -312.5 128.5t-109.5 364.5zM319 594h238q0 229 -113 229q-59 0 -91 -70.5t-34 -158.5z" />
<glyph unicode="&#x436;" horiz-adv-x="1228" d="M8 0q51 115 86 285q49 227 166 270l-252 446h279l157 -407h41v407h258v-407h41l156 407h281l-252 -446q125 -47 166 -268q43 -193 86 -287h-263q-25 49 -63 240q-41 182 -129 182h-23v-422h-258v422h-22q-49 0 -79 -47t-52 -137q-37 -184 -64 -238h-260z" />
<glyph unicode="&#x437;" horiz-adv-x="770" d="M16 41l45 178q98 -43 195 -43q92 0 138 36t46 87q0 66 -54 98.5t-136 32.5h-86v176h84q74 0 117 31t43 86q0 51 -37 81t-107 30q-82 0 -176 -50l-41 166q119 68 301 68q160 0 246 -72t86 -182q0 -86 -56.5 -144.5t-150.5 -80.5v-4q109 -16 176.5 -83t67.5 -163 q0 -145 -125 -225t-305 -80q-152 0 -271 57z" />
<glyph unicode="&#x438;" horiz-adv-x="929" d="M94 0v1001h242v-215q0 -258 -21 -462h7q37 117 110 297l152 380h254v-1001h-244v219q0 96 16 451h-6q-51 -170 -96 -285q-92 -233 -164 -385h-250z" />
<glyph unicode="&#x439;" horiz-adv-x="929" d="M94 0v1001h242v-215q0 -258 -21 -462h7q37 117 110 297l152 380h254v-1001h-244v219q0 96 16 451h-6q-51 -170 -96 -285q-92 -233 -164 -385h-250zM207 1389h164q6 -125 92 -125q92 0 98 125h164q-8 -123 -75.5 -191t-192.5 -68q-119 0 -182.5 68t-67.5 191z" />
<glyph unicode="&#x43a;" horiz-adv-x="849" d="M94 0v1001h262v-399h29l174 399h279l-258 -430q129 -41 178 -286q37 -174 88 -285h-268q-31 61 -72 244q-43 172 -131 172h-19v-416h-262z" />
<glyph unicode="&#x43b;" horiz-adv-x="897" d="M0 193q57 14 90 69q45 80 45 301v438h668v-1001h-268v786h-150v-217q0 -231 -41 -366t-164 -193q-70 -33 -137 -33z" />
<glyph unicode="&#x43c;" horiz-adv-x="1214" d="M68 0l71 1001h334l74 -319q37 -158 67 -293h7q12 61 30.5 155.5t28.5 137.5l70 319h333l66 -1001h-250l-12 350q0 18 -4 158.5t-6 265.5h-5q-51 -270 -84 -414l-77 -344h-217l-80 349q-12 57 -42 207.5t-40 201.5h-4q0 -61 -9 -426l-10 -348h-241z" />
<glyph unicode="&#x43d;" horiz-adv-x="935" d="M94 0v1001h268v-378h211v378h269v-1001h-269v395h-211v-395h-268z" />
<glyph unicode="&#x43e;" horiz-adv-x="882" d="M59 498q0 254 113 387t274 133q176 0 277.5 -138.5t101.5 -375.5q0 -147 -37.5 -256t-98 -163t-122 -77.5t-125.5 -23.5q-180 0 -281.5 135t-101.5 379zM326 504q0 -315 123 -316q109 0 108 316q0 311 -113 311q-118 0 -118 -311z" />
<glyph unicode="&#x43f;" horiz-adv-x="933" d="M94 0v1001h746v-1001h-269v784h-209v-784h-268z" />
<glyph unicode="&#x440;" horiz-adv-x="915" d="M84 1001h233l15 -114h4q66 131 209 131q156 0 233.5 -145.5t77.5 -370.5q0 -252 -94 -385t-232 -133q-106 0 -165 98h-5v-475h-268v1077q0 129 -8 317zM360 367q0 -57 15 -86q27 -78 86 -78q127 0 127 297q0 293 -125 293q-31 0 -56.5 -26t-33.5 -60q-12 -25 -13 -72 v-268z" />
<glyph unicode="&#x441;" horiz-adv-x="661" d="M59 492q0 233 126 378.5t333 145.5q90 0 148 -27l-35 -211q-51 18 -101 19q-94 0 -149 -82t-55 -215q0 -137 53 -215t147 -78q59 0 101 20l22 -211q-61 -29 -170 -28q-195 0 -307.5 131t-112.5 373z" />
<glyph unicode="&#x442;" horiz-adv-x="757" d="M20 784v217h717v-217h-223v-784h-270v784h-224z" />
<glyph unicode="&#x443;" horiz-adv-x="800" d="M10 1001h289l98 -520q8 -43 27 -168h4q4 27 25 164l84 524h262l-205 -772q-94 -358 -223 -512q-102 -121 -228 -157l-82 231q66 23 134 84q55 53 84 119q14 33 14 43q0 12 -8 37z" />
<glyph unicode="&#x444;" horiz-adv-x="1138" d="M59 498q0 219 99.5 354t292.5 168l-2 354h239l-2 -352q193 -33 293 -169t100 -355q0 -225 -98 -359.5t-295 -158.5l2 -373h-239l2 373q-392 51 -392 518zM297 504q0 -299 156 -361v717q-156 -65 -156 -356zM684 141q158 68 158 363q0 283 -158 354v-717z" />
<glyph unicode="&#x445;" horiz-adv-x="811" d="M12 0l224 498l-222 503h291l62 -178q27 -76 49 -168h4q45 164 47 168l59 178h271l-228 -491l232 -510h-293l-68 188q-27 78 -49 154h-4q-6 -29 -23.5 -83t-21.5 -71l-61 -188h-269z" />
<glyph unicode="&#x446;" horiz-adv-x="958" d="M94 0v1001h268v-782h205v782h271v-804l92 -4l-10 -469h-203l-12 276h-611z" />
<glyph unicode="&#x447;" horiz-adv-x="917" d="M84 623v378h268v-362q0 -139 109 -139q55 0 94 28v473h270v-1011h-268v360h-6q-70 -45 -184 -45q-283 1 -283 318z" />
<glyph unicode="&#x448;" horiz-adv-x="1359" d="M94 0v1001h264v-782h191v782h264v-782h191v782h262v-1001h-1172z" />
<glyph unicode="&#x449;" horiz-adv-x="1388" d="M94 0v1001h264v-782h191v782h264v-782h191v782h262v-804l94 -4l-10 -469h-203l-12 276h-1041z" />
<glyph unicode="&#x44a;" horiz-adv-x="1085" d="M23 784v217h495v-319q51 8 105 8q172 0 290.5 -85t118.5 -249q0 -172 -127 -268q-135 -98 -389 -98q-125 0 -262 18v776h-231zM518 188q20 -2 66 -2q74 0 126 39t52 115t-54.5 115t-134.5 39q-18 0 -55 -5v-301z" />
<glyph unicode="&#x44b;" horiz-adv-x="1286" d="M94 8v993h264v-319q43 8 105 8q160 0 271.5 -86t111.5 -248q0 -172 -127 -268q-135 -98 -363 -98q-125 0 -262 18zM358 188q16 -2 58 -2q61 0 110 41t49 113q0 76 -50 115t-111 39q-37 0 -56 -5v-301zM928 0v1001h268v-1001h-268z" />
<glyph unicode="&#x44c;" horiz-adv-x="925" d="M94 8v993h264v-319q51 8 105 8q178 0 293.5 -85t115.5 -257q0 -164 -127 -260q-135 -98 -389 -98q-125 0 -262 18zM358 188q20 -2 58 -2q78 0 132 39t54 115t-54 115t-134 39q-18 0 -56 -5v-301z" />
<glyph unicode="&#x44d;" horiz-adv-x="768" d="M14 27l33 194q86 -29 156 -28q96 0 159.5 63t71.5 162h-336v180h336q-8 96 -62.5 157.5t-150.5 61.5q-84 0 -158 -33l-40 187q90 47 241 47q193 0 311 -125q133 -150 134 -385q0 -244 -133.5 -384t-344.5 -140q-131 0 -217 43z" />
<glyph unicode="&#x44e;" horiz-adv-x="1249" d="M94 0v1001h262v-380h95q29 195 131 296t237 101q174 0 272.5 -138.5t98.5 -375.5q0 -147 -37 -256t-96.5 -163t-118.5 -77.5t-121 -23.5q-158 0 -255 110.5t-113 313.5h-93v-408h-262zM698 504q0 -315 121 -316h2q57 0 83 92.5t26 223.5q0 125 -26.5 218t-86.5 93 q-119 0 -119 -311z" />
<glyph unicode="&#x44f;" horiz-adv-x="894" d="M8 0q35 51 51 111q63 229 121 290q43 47 121 70v4q-102 23 -167.5 84.5t-65.5 161.5q0 135 116 217q102 72 336 72q182 0 281 -19v-991h-258v393h-25q-37 0 -74 -20q-18 -10 -33.5 -29.5t-25.5 -39t-21.5 -54.5t-17.5 -54.5t-16.5 -62.5t-14.5 -59q-8 -37 -28 -74h-279z M336 704.5q0 -65.5 49 -108.5t121 -43q25 0 39 2v281q-29 6 -58 6q-70 0 -110.5 -36t-40.5 -101.5z" />
<glyph unicode="&#x450;" horiz-adv-x="858" d="M170 1427h234l141 -287h-170zM59 481q0 246 114 391.5t288 145.5q162 0 251 -123t89 -350q0 -100 -8 -139h-476q6 -213 213 -213q96 0 191 32l37 -192q-119 -45 -277 -45q-203 0 -312.5 128.5t-109.5 364.5zM319 594h238q0 229 -113 229q-59 0 -91 -70.5t-34 -158.5z" />
<glyph unicode="&#x451;" horiz-adv-x="858" d="M59 481q0 246 114 391.5t288 145.5q162 0 251 -123t89 -350q0 -100 -8 -139h-476q6 -213 213 -213q96 0 191 32l37 -192q-119 -45 -277 -45q-203 0 -312.5 128.5t-109.5 364.5zM162 1278q0 55 35.5 93t87.5 38q53 0 88 -37t35 -94t-35 -94t-88 -37h-2q-49 0 -85 38 t-36 93zM319 594h238q0 229 -113 229q-59 0 -91 -70.5t-34 -158.5zM524 1278q0 55 37 93t88 38t86 -37t35 -94t-34 -94t-87 -37h-2q-51 0 -87 38t-36 93z" />
<glyph unicode="&#x452;" horiz-adv-x="946" d="M4 1120v164h111v133h268v-133h340v-164h-340v-229h4q82 115 205 115q133 0 207 -134q82 -143 82 -417q0 -436 -183 -613q-94 -88 -200 -104l-60 223q63 14 107 80q70 117 69 405q0 152 -32 248q-31 86 -90 86q-51 0 -82 -51q-27 -45 -27 -102v-627h-268v1120h-111z" />
<glyph unicode="&#x453;" horiz-adv-x="671" d="M94 0v1001h555v-221h-289v-780h-266zM250 1124l141 287h234l-207 -287h-168z" />
<glyph unicode="&#x454;" horiz-adv-x="761" d="M59 492q0 231 130 378.5t362 147.5q133 0 207 -45l-45 -189q-74 37 -152 37q-98 0 -158.5 -64.5t-68.5 -158.5h340v-180h-340q10 -106 72.5 -170t164.5 -64q78 0 146 31l35 -188q-90 -43 -224 -43q-209 0 -339 137.5t-130 370.5z" />
<glyph unicode="&#x455;" horiz-adv-x="663" d="M37 45l49 197q84 -53 180 -54q109 0 109 91q0 39 -25.5 67.5t-91.5 67.5q-203 115 -203 288q0 137 91.5 226.5t238.5 89.5q104 0 203 -45l-47 -197q-72 41 -140 41q-49 0 -74.5 -24.5t-25.5 -61.5q0 -35 23.5 -59.5t93.5 -65.5q203 -115 203 -303q0 -150 -97.5 -232.5 t-257.5 -82.5q-151 0 -229 57z" />
<glyph unicode="&#x456;" horiz-adv-x="456" d="M88 1268q-2 66 39 105.5t98 39.5q59 0 98 -40t39 -105q2 -63 -38.5 -104.5t-102.5 -41.5q-57 0 -96 41.5t-37 104.5zM94 0v1001h268v-1001h-268z" />
<glyph unicode="&#x457;" horiz-adv-x="456" d="M-76 1278q0 55 36 93t87 38q53 0 88 -37t35 -94t-35 -94t-88 -37h-2q-49 0 -85 38t-36 93zM94 0v1001h268v-1001h-268zM287 1278q0 55 36.5 93t88 38t86 -37t34.5 -94t-33.5 -94t-86.5 -37h-2q-51 0 -87 38t-36 93z" />
<glyph unicode="&#x458;" horiz-adv-x="458" d="M-80 -197q94 12 131 54q29 29 37 86t8 180v878h271v-929q0 -162 -33 -252t-101 -144q-106 -86 -292 -86zM94 1268q-2 66 38 105.5t99.5 39.5t98.5 -40t39 -105q0 -63 -40 -104.5t-102 -41.5q-57 0 -96 41.5t-37 104.5z" />
<glyph unicode="&#x459;" horiz-adv-x="1370" d="M0 193q57 14 90 69q45 70 45 301v438h670v-317q59 6 98 6q176 0 295 -86t119 -254q0 -164 -123 -256q-141 -104 -406 -104q-113 0 -249 18v778h-154v-217q0 -231 -41 -366t-164 -193q-66 -33 -137 -33zM805 188q18 -2 55 -2q78 0 132.5 39t54.5 115q0 78 -53.5 116 t-135.5 38q-20 0 -53 -5v-301z" />
<glyph unicode="&#x45a;" horiz-adv-x="1388" d="M94 0v1001h268v-354h195v354h266v-321q57 6 109 6q176 0 290.5 -88t114.5 -258q0 -154 -125 -248q-143 -102 -405 -102q-94 0 -250 16v426h-195v-432h-268zM823 188q18 -2 58 -2q82 0 134 38t52 114q0 78 -53 114.5t-135 36.5q-18 0 -56 -4v-297z" />
<glyph unicode="&#x45b;" horiz-adv-x="958" d="M4 1120v164h111v133h268v-133h338v-164h-338v-235h4q33 51 86 84q63 37 135 37q256 0 256 -400v-606h-268v596q0 184 -98 184q-76 0 -105 -96q-10 -41 -10 -78v-606h-268v1120h-111z" />
<glyph unicode="&#x45c;" horiz-adv-x="849" d="M94 0v1001h262v-399h29l174 399h279l-258 -430q129 -41 178 -286q37 -174 88 -285h-268q-31 61 -72 244q-43 172 -131 172h-19v-416h-262zM330 1124l141 287h234l-207 -287h-168z" />
<glyph unicode="&#x45d;" horiz-adv-x="929" d="M176 1427h234l141 -287h-170zM94 0v1001h242v-215q0 -258 -21 -462h7q37 117 110 297l152 380h254v-1001h-244v219q0 96 16 451h-6q-51 -170 -96 -285q-92 -233 -164 -385h-250z" />
<glyph unicode="&#x45e;" horiz-adv-x="800" d="M10 1001h289l98 -520q8 -43 27 -168h4q4 27 25 164l84 524h262l-205 -772q-94 -358 -223 -512q-102 -121 -228 -157l-82 231q66 23 134 84q55 53 84 119q14 33 14 43q0 12 -8 37zM141 1389h164q6 -125 92 -125q92 0 99 125h163q-8 -123 -75.5 -191t-192.5 -68 q-119 0 -182.5 68t-67.5 191z" />
<glyph unicode="&#x45f;" horiz-adv-x="931" d="M94 0v1001h271v-782h202v782h271v-1001h-258l-13 -285h-207l-12 285h-254z" />
<glyph unicode="&#x470;" horiz-adv-x="1175" d="M66 948v432h243v-430q0 -172 38 -248.5t126 -93.5v772h229v-772q84 10 123 111.5t39 316.5v344h246v-342q0 -573 -403 -639v-399h-238v399q-197 31 -300 157t-103 392z" />
<glyph unicode="&#x471;" horiz-adv-x="1175" d="M72 1001h233q18 -43 19 -204v-318q0 -274 149 -305v1038h240v-1038q78 4 117.5 127t39.5 322q0 262 -43 378h224q61 -137 61 -352q0 -139 -18.5 -246.5t-60.5 -202t-122 -149.5t-194 -67v-377h-246v377q-78 12 -139.5 36.5t-121.5 75.5t-93 144.5t-33 222.5v274 q0 186 -12 264z" />
<glyph unicode="&#x490;" horiz-adv-x="765" d="M119 0v1380h430l29 250h184l-21 -483h-354v-1147h-268z" />
<glyph unicode="&#x491;" horiz-adv-x="669" d="M94 0v1001h350l27 230h193l-17 -451h-287v-780h-266z" />
<glyph unicode="&#x4ae;" horiz-adv-x="823" d="M-31 1380h287l94 -329q47 -166 72 -293h4q20 129 63 299l82 323h279l-309 -841v-539h-269v528z" />
<glyph unicode="&#x4c0;" horiz-adv-x="507" d="M119 0v1380h268v-1380h-268z" />
<glyph unicode="&#x4c1;" horiz-adv-x="1429" d="M471 1780h134q6 -51 34.5 -80t73.5 -29q53 0 83 30.5t32 78.5h131q4 -111 -66.5 -186t-181.5 -75q-109 0 -176.5 75t-63.5 186zM4 0q43 123 92 356q16 74 36 129.5t52.5 116t83.5 98t119 50.5l-371 630h303l254 -594h19v594h244v-594h20l254 594h303l-371 -630 q68 -12 119 -50t84 -98.5t52.5 -116t35.5 -129.5q59 -264 92 -356h-260q-12 33 -75 289q-14 61 -28.5 103t-40.5 92.5t-67 76t-94 25.5h-24v-586h-244v586h-21q-45 0 -80.5 -19.5t-58 -46t-42 -72t-30 -78t-22.5 -81.5q-6 -23 -20.5 -89.5t-28 -113.5t-27.5 -86h-258z" />
<glyph unicode="&#x4c2;" horiz-adv-x="1228" d="M370 1401h134q6 -51 34.5 -80t73.5 -29q53 0 83 30.5t32 78.5h131q4 -111 -66.5 -186t-181.5 -75q-109 0 -176.5 75t-63.5 186zM8 0q51 115 86 285q49 227 166 270l-252 446h279l157 -407h41v407h258v-407h41l156 407h281l-252 -446q125 -47 166 -268q43 -193 86 -287 h-263q-25 49 -63 240q-41 182 -129 182h-23v-422h-258v422h-22q-49 0 -79 -47t-52 -137q-37 -184 -64 -238h-260z" />
<glyph unicode="&#x4d0;" horiz-adv-x="937" d="M233 1780h134q6 -51 34.5 -80t73.5 -29q53 0 83 30.5t32 78.5h131q4 -111 -66.5 -186t-181.5 -75q-109 0 -176.5 75t-63.5 186zM16 0l299 1380h322l268 -1380h-260l-59 315h-248l-62 -315h-260zM365 524h196l-45 289q-14 88 -45 313h-6q-49 -311 -49 -315z" />
<glyph unicode="&#x4d1;" horiz-adv-x="864" d="M169 1401h134q6 -51 34.5 -80t73.5 -29q53 0 83 30.5t32 78.5h131q4 -111 -66.5 -186t-181.5 -75q-109 0 -176.5 75t-63.5 186zM39 289q0 125 68.5 212t169 122.5t221.5 38.5v22q0 61 -37 98t-105 37q-113 0 -204 -57l-50 180q127 76 312 76q88 0 153.5 -24.5 t103.5 -62.5t60.5 -95.5t29.5 -111.5t7 -122v-373q0 -139 16 -229h-241l-15 98h-4q-82 -115 -221 -114q-115 0 -189.5 86t-74.5 219zM293 317q0 -68 29.5 -102.5t66.5 -34.5q35 0 66.5 22.5t44.5 63.5q6 20 6 47v174q-213 -4 -213 -170z" />
<glyph unicode="&#x4d2;" horiz-adv-x="937" d="M172 1651q0 55 36 93t87 38q53 0 88 -37t35 -94t-35 -94t-88 -37h-2q-49 0 -85 38t-36 93zM535 1651q0 55 36.5 93t88 38t86 -37t34.5 -94t-33.5 -94t-87.5 -37h-2q-51 0 -86.5 38t-35.5 93zM16 0l299 1380h322l268 -1380h-260l-59 315h-248l-62 -315h-260zM365 524h196 l-45 289q-14 88 -45 313h-6q-49 -311 -49 -315z" />
<glyph unicode="&#x4d3;" horiz-adv-x="864" d="M108 1272q0 55 36 93t87 38q53 0 88 -37t35 -94t-35 -94t-88 -37h-2q-49 0 -85 38t-36 93zM471 1272q0 55 36.5 93t88 38t86 -37t34.5 -94t-33.5 -94t-87.5 -37h-2q-51 0 -86.5 38t-35.5 93zM39 289q0 125 68.5 212t169 122.5t221.5 38.5v22q0 61 -37 98t-105 37 q-113 0 -204 -57l-50 180q127 76 312 76q88 0 153.5 -24.5t103.5 -62.5t60.5 -95.5t29.5 -111.5t7 -122v-373q0 -139 16 -229h-241l-15 98h-4q-82 -115 -221 -114q-115 0 -189.5 86t-74.5 219zM293 317q0 -68 29.5 -102.5t66.5 -34.5q35 0 66.5 22.5t44.5 63.5q6 20 6 47 v174q-213 -4 -213 -170z" />
<glyph unicode="&#x4d4;" horiz-adv-x="1218" d="M-14 0l415 1380h756l-2 -233h-362l18 -340h334v-223h-311l20 -351h334v-233h-570l-24 377h-252l-92 -377h-264zM391 586h182l-16 342q-4 88 -16 266h-6q-14 -66 -42 -183.5t-34 -142.5z" />
<glyph unicode="&#x4d5;" horiz-adv-x="1296" d="M39 299q0 172 133 259t320 89v31q0 61 -41 101t-115 40q-102 0 -184 -55l-50 178q123 76 285 76q195 0 258 -158h4q90 158 273 158q145 0 231 -126t86 -347q0 -37 -8 -107h-475q0 -133 60.5 -193.5t158.5 -60.5q102 0 184 41l37 -186q-111 -55 -268 -55q-104 0 -189.5 45 t-126.5 129h-6q-102 -174 -291 -174q-121 0 -198.5 89t-77.5 226zM279 309q0 -61 30.5 -93t71.5 -32q35 0 64.5 23.5t41.5 64.5q8 23 9 56v151q-86 0 -151.5 -38t-65.5 -132zM756 612h237q2 92 -25.5 155.5t-82.5 63.5q-59 0 -93 -69.5t-36 -149.5z" />
<glyph unicode="&#x4d6;" horiz-adv-x="806" d="M176 1780h134q6 -51 34.5 -80t73.5 -29q53 0 83 30.5t32 78.5h131q4 -111 -66.5 -186t-181.5 -75q-109 0 -176.5 75t-63.5 186zM119 0v1380h600v-233h-332v-318h315v-223h-315v-373h356v-233h-624z" />
<glyph unicode="&#x4d7;" horiz-adv-x="858" d="M217 1401h134q6 -51 34.5 -80t73.5 -29q53 0 83 30.5t32 78.5h131q4 -111 -66.5 -186t-181.5 -75q-109 0 -176.5 75t-63.5 186zM59 481q0 246 114 391.5t288 145.5q162 0 251 -123t89 -350q0 -100 -8 -139h-476q6 -213 213 -213q96 0 191 32l37 -192q-119 -45 -277 -45 q-203 0 -312.5 128.5t-109.5 364.5zM319 594h238q0 229 -113 229q-59 0 -91 -70.5t-34 -158.5z" />
<glyph unicode="&#x4d9;" horiz-adv-x="671" d="M55 461q0 86 11 131h473q-2 223 -205 223q-94 0 -199 -39l-35 180q129 61 281 62q201 0 309.5 -131t108.5 -367q0 -244 -112 -388t-286 -144q-164 0 -255 124t-91 349zM301 406q-2 -96 28.5 -159t88.5 -63q59 0 89 69t32 153h-238z" />
<glyph unicode="&#x4db;" horiz-adv-x="671" d="M76 1272q0 55 36 93t87 38q53 0 88 -37t35 -94t-35 -94t-88 -37h-2q-49 0 -85 38t-36 93zM439 1272q0 55 36.5 93t88 38t86 -37t34.5 -94t-33.5 -94t-87.5 -37h-2q-51 0 -86.5 38t-35.5 93zM55 461q0 86 11 131h473q-2 223 -205 223q-94 0 -199 -39l-35 180 q129 61 281 62q201 0 309.5 -131t108.5 -367q0 -244 -112 -388t-286 -144q-164 0 -255 124t-91 349zM301 406q-2 -96 28.5 -159t88.5 -63q59 0 89 69t32 153h-238z" />
<glyph unicode="&#x4dc;" horiz-adv-x="1429" d="M412 1651q0 55 36 93t87 38q53 0 88 -37t35 -94t-35 -94t-88 -37h-2q-49 0 -85 38t-36 93zM775 1651q0 55 36.5 93t88 38t86 -37t34.5 -94t-33.5 -94t-87.5 -37h-2q-51 0 -86.5 38t-35.5 93zM4 0q43 123 92 356q16 74 36 129.5t52.5 116t83.5 98t119 50.5l-371 630h303 l254 -594h19v594h244v-594h20l254 594h303l-371 -630q68 -12 119 -50t84 -98.5t52.5 -116t35.5 -129.5q59 -264 92 -356h-260q-12 33 -75 289q-14 61 -28.5 103t-40.5 92.5t-67 76t-94 25.5h-24v-586h-244v586h-21q-45 0 -80.5 -19.5t-58 -46t-42 -72t-30 -78t-22.5 -81.5 q-6 -23 -20.5 -89.5t-28 -113.5t-27.5 -86h-258z" />
<glyph unicode="&#x4dd;" horiz-adv-x="1228" d="M309 1272q0 55 36 93t87 38q53 0 88 -37t35 -94t-35 -94t-88 -37h-2q-49 0 -85 38t-36 93zM672 1272q0 55 36.5 93t88 38t86 -37t34.5 -94t-33.5 -94t-87.5 -37h-2q-51 0 -86.5 38t-35.5 93zM8 0q51 115 86 285q49 227 166 270l-252 446h279l157 -407h41v407h258v-407h41 l156 407h281l-252 -446q125 -47 166 -268q43 -193 86 -287h-263q-25 49 -63 240q-41 182 -129 182h-23v-422h-258v422h-22q-49 0 -79 -47t-52 -137q-37 -184 -64 -238h-260z" />
<glyph unicode="&#x4de;" horiz-adv-x="819" d="M47 1651q0 55 36 93t87 38q53 0 88 -37t35 -94t-35 -94t-88 -37h-2q-49 0 -85 38t-36 93zM410 1651q0 55 36.5 93t88 38t86 -37t34.5 -94t-33.5 -94t-87.5 -37h-2q-51 0 -86.5 38t-35.5 93zM25 45l38 219q94 -55 213 -55q104 0 162 53t58 139q0 109 -77 162t-196 53h-39 v203h27q100 0 173 48t73 139q0 74 -45 117.5t-129 43.5q-92 0 -193 -57l-45 207q117 80 305 80q186 0 285.5 -97.5t99.5 -242.5q0 -109 -65.5 -198t-167.5 -116v-4q125 -25 199.5 -116t74.5 -230q0 -190 -138 -299.5t-335 -109.5q-165 0 -278 61z" />
<glyph unicode="&#x4df;" horiz-adv-x="770" d="M43 1272q0 55 36 93t87 38q53 0 88 -37t35 -94t-35 -94t-88 -37h-2q-49 0 -85 38t-36 93zM406 1272q0 55 36.5 93t88 38t86 -37t34.5 -94t-33.5 -94t-87.5 -37h-2q-51 0 -86.5 38t-35.5 93zM16 41l45 178q98 -43 195 -43q92 0 138 36t46 87q0 66 -54 98.5t-136 32.5h-86 v176h84q74 0 117 31t43 86q0 51 -37 81t-107 30q-82 0 -176 -50l-41 166q119 68 301 68q160 0 246 -72t86 -182q0 -86 -56.5 -144.5t-150.5 -80.5v-4q109 -16 176.5 -83t67.5 -163q0 -145 -125 -225t-305 -80q-152 0 -271 57z" />
<glyph unicode="&#x4e2;" horiz-adv-x="1050" d="M307 1520v151h436v-151h-436zM119 0v1380h237v-305q0 -262 -26 -635h4q49 147 149 406l203 534h244v-1380h-236v309q0 252 17 623h-4q-37 -150 -138 -406l-202 -526h-248z" />
<glyph unicode="&#x4e3;" horiz-adv-x="929" d="M248 1141v151h436v-151h-436zM94 0v1001h242v-215q0 -258 -21 -462h7q37 117 110 297l152 380h254v-1001h-244v219q0 96 16 451h-6q-51 -170 -96 -285q-92 -233 -164 -385h-250z" />
<glyph unicode="&#x4e4;" horiz-adv-x="1050" d="M219 1651q0 55 36 93t87 38q53 0 88 -37t35 -94t-35 -94t-88 -37h-2q-49 0 -85 38t-36 93zM582 1651q0 55 36.5 93t88 38t86 -37t34.5 -94t-33.5 -94t-87.5 -37h-2q-51 0 -86.5 38t-35.5 93zM119 0v1380h237v-305q0 -262 -26 -635h4q49 147 149 406l203 534h244v-1380 h-236v309q0 252 17 623h-4q-37 -150 -138 -406l-202 -526h-248z" />
<glyph unicode="&#x4e5;" horiz-adv-x="929" d="M162 1272q0 55 36 93t87 38q53 0 88 -37t35 -94t-35 -94t-88 -37h-2q-49 0 -85 38t-36 93zM525 1272q0 55 36.5 93t88 38t86 -37t34.5 -94t-33.5 -94t-87.5 -37h-2q-51 0 -86.5 38t-35.5 93zM94 0v1001h242v-215q0 -258 -21 -462h7q37 117 110 297l152 380h254v-1001 h-244v219q0 96 16 451h-6q-51 -170 -96 -285q-92 -233 -164 -385h-250z" />
<glyph unicode="&#x4e6;" horiz-adv-x="985" d="M203 1651q0 55 36 93t87 38q53 0 88 -37t35 -94t-35 -94t-88 -37h-2q-49 0 -85 38t-36 93zM566 1651q0 55 36.5 93t88 38t86 -37t34.5 -94t-33.5 -94t-87.5 -37h-2q-51 0 -86.5 38t-35.5 93zM51 694q0 195 49.5 350.5t153.5 254t252 98.5q96 0 172 -41t123 -107.5 t77.5 -158t43 -183.5t12.5 -192q0 -375 -120 -553t-327 -178q-150 0 -251 101t-143 255.5t-42 353.5zM330 690q0 -473 168 -473q156 0 155 485q0 461 -157 461q-80 0 -123 -125t-43 -348z" />
<glyph unicode="&#x4e7;" horiz-adv-x="882" d="M141 1272q0 55 36 93t87 38q53 0 88 -37t35 -94t-35 -94t-88 -37h-2q-49 0 -85 38t-36 93zM504 1272q0 55 36.5 93t88 38t86 -37t34.5 -94t-33.5 -94t-87.5 -37h-2q-51 0 -86.5 38t-35.5 93zM59 498q0 254 113 387t274 133q176 0 277.5 -138.5t101.5 -375.5 q0 -147 -37.5 -256t-98 -163t-122 -77.5t-125.5 -23.5q-180 0 -281.5 135t-101.5 379zM326 504q0 -315 123 -316q109 0 108 316q0 311 -113 311q-118 0 -118 -311z" />
<glyph unicode="&#x4e8;" horiz-adv-x="1001" d="M51 694q0 299 121 501t342 202q121 0 209 -60.5t136 -164t69.5 -217t21.5 -240.5q0 -373 -121.5 -552t-330.5 -179h-2q-152 0 -254.5 101t-146.5 255.5t-44 353.5zM326 696q0 -221 44 -352t134 -131h2q170 0 170 489q0 205 -41 335t-131 130q-88 0 -133 -133t-45 -338z M385 575v250h229v-250h-229z" />
<glyph unicode="&#x4e9;" horiz-adv-x="882" d="M59 721q0 193 34 337t92.5 223t123 116t137.5 37q174 0 275.5 -174.5t101.5 -538.5q0 -737 -381 -737h-2q-381 0 -381 737zM315 616q0 -223 35 -329.5t92 -106.5q125 0 125 436h-252zM315 829h250q0 207 -34.5 307.5t-90.5 100.5q-53 0 -89 -102.5t-36 -305.5z" />
<glyph unicode="&#x4ea;" horiz-adv-x="1001" d="M211 1651q0 55 36 93t87 38q53 0 88 -37t35 -94t-35 -94t-88 -37h-2q-49 0 -85 38t-36 93zM574 1651q0 55 36.5 93t88 38t86 -37t34.5 -94t-33.5 -94t-87.5 -37h-2q-51 0 -86.5 38t-35.5 93zM51 694q0 299 121 501t342 202q121 0 209 -60.5t136 -164t69.5 -217 t21.5 -240.5q0 -373 -121.5 -552t-330.5 -179h-2q-152 0 -254.5 101t-146.5 255.5t-44 353.5zM326 696q0 -221 44 -352t134 -131h2q170 0 170 489q0 205 -41 335t-131 130q-88 0 -133 -133t-45 -338zM385 575v250h229v-250h-229z" />
<glyph unicode="&#x4eb;" horiz-adv-x="882" d="M141 1688q0 55 36 93t87 38q53 0 88 -37t35 -94t-35 -94t-88 -37h-2q-49 0 -85 38t-36 93zM504 1688q0 55 36.5 93t88 38t86 -37t34.5 -94t-33.5 -94t-87.5 -37h-2q-51 0 -86.5 38t-35.5 93zM59 721q0 193 34 337t92.5 223t123 116t137.5 37q174 0 275.5 -174.5 t101.5 -538.5q0 -737 -381 -737h-2q-381 0 -381 737zM315 616q0 -223 35 -329.5t92 -106.5q125 0 125 436h-252zM315 829h250q0 207 -34.5 307.5t-90.5 100.5q-53 0 -89 -102.5t-36 -305.5z" />
<glyph unicode="&#x4ec;" horiz-adv-x="833" d="M-10 1651q0 55 36 93t87 38q53 0 88 -37t35 -94t-35 -94t-88 -37h-2q-49 0 -85 38t-36 93zM353 1651q0 55 36.5 93t88 38t86 -37t34.5 -94t-33.5 -94t-87.5 -37h-2q-51 0 -86.5 38t-35.5 93zM20 37l50 223q82 -35 155 -35q139 0 203 104.5t76 252.5h-373v237h377 q-2 127 -65.5 232.5t-186.5 105.5q-82 0 -158 -35l-61 215q123 59 256 60q115 0 203 -45t141 -115t87 -167t46 -190.5t12 -195.5q0 -317 -141 -508.5t-377 -191.5q-133 0 -244 53z" />
<glyph unicode="&#x4ed;" horiz-adv-x="768" d="M-39 1272q0 55 36 93t87 38q53 0 88 -37t35 -94t-35 -94t-88 -37h-2q-49 0 -85 38t-36 93zM324 1272q0 55 36.5 93t88 38t86 -37t34.5 -94t-33.5 -94t-87.5 -37h-2q-51 0 -86.5 38t-35.5 93zM14 27l33 194q86 -29 156 -28q96 0 159.5 63t71.5 162h-336v180h336 q-8 96 -62.5 157.5t-150.5 61.5q-84 0 -158 -33l-40 187q90 47 241 47q193 0 311 -125q133 -150 134 -385q0 -244 -133.5 -384t-344.5 -140q-131 0 -217 43z" />
<glyph unicode="&#x4ee;" horiz-adv-x="811" d="M192 1520v151h436v-151h-436zM-23 1380h289l127 -528q29 -127 45 -221h6q6 35 17.5 115.5t15.5 109.5l92 524h273l-205 -745q-96 -354 -170 -481q-111 -180 -281 -181q-68 0 -108 13l10 219q37 -6 66 -6q49 0 90 42t57 99q14 35 -2 80z" />
<glyph unicode="&#x4ef;" horiz-adv-x="800" d="M186 1141v151h436v-151h-436zM10 1001h289l98 -520q8 -43 27 -168h4q4 27 25 164l84 524h262l-205 -772q-94 -358 -223 -512q-102 -121 -228 -157l-82 231q66 23 134 84q55 53 84 119q14 33 14 43q0 12 -8 37z" />
<glyph unicode="&#x4f0;" horiz-adv-x="811" d="M104 1651q0 55 36 93t87 38q53 0 88 -37t35 -94t-35 -94t-88 -37h-2q-49 0 -85 38t-36 93zM467 1651q0 55 36.5 93t88 38t86 -37t34.5 -94t-33.5 -94t-87.5 -37h-2q-51 0 -86.5 38t-35.5 93zM-23 1380h289l127 -528q29 -127 45 -221h6q6 35 17.5 115.5t15.5 109.5l92 524 h273l-205 -745q-96 -354 -170 -481q-111 -180 -281 -181q-68 0 -108 13l10 219q37 -6 66 -6q49 0 90 42t57 99q14 35 -2 80z" />
<glyph unicode="&#x4f1;" horiz-adv-x="800" d="M100 1272q0 55 36 93t87 38q53 0 88 -37t35 -94t-35 -94t-88 -37h-2q-49 0 -85 38t-36 93zM463 1272q0 55 36.5 93t88 38t86 -37t34.5 -94t-33.5 -94t-87.5 -37h-2q-51 0 -86.5 38t-35.5 93zM10 1001h289l98 -520q8 -43 27 -168h4q4 27 25 164l84 524h262l-205 -772 q-94 -358 -223 -512q-102 -121 -228 -157l-82 231q66 23 134 84q55 53 84 119q14 33 14 43q0 12 -8 37z" />
<glyph unicode="&#x4f2;" horiz-adv-x="811" d="M198 1519l148 287h194l-204 -287h-138zM481 1519l147 287h195l-205 -287h-137zM-23 1380h289l127 -528q29 -127 45 -221h6q6 35 17.5 115.5t15.5 109.5l92 524h273l-205 -745q-96 -354 -170 -481q-111 -180 -281 -181q-68 0 -108 13l10 219q37 -6 66 -6q49 0 90 42t57 99 q14 35 -2 80z" />
<glyph unicode="&#x4f3;" horiz-adv-x="800" d="M194 1140l148 287h194l-204 -287h-138zM477 1140l147 287h195l-205 -287h-137zM10 1001h289l98 -520q8 -43 27 -168h4q4 27 25 164l84 524h262l-205 -772q-94 -358 -223 -512q-102 -121 -228 -157l-82 231q66 23 134 84q55 53 84 119q14 33 14 43q0 12 -8 37z" />
<glyph unicode="&#x4f4;" horiz-adv-x="1017" d="M199 1651q0 55 36 93t87 38q53 0 88 -37t35 -94t-35 -94t-88 -37h-2q-49 0 -85 38t-36 93zM562 1651q0 55 36.5 93t88 38t86 -37t34.5 -94t-33.5 -94t-87.5 -37h-2q-51 0 -86.5 38t-35.5 93zM109 883v497h264v-467q0 -190 151 -190q70 0 111 29v628h264v-1396h-264v559 h-6q-104 -47 -197 -47q-323 0 -323 387z" />
<glyph unicode="&#x4f5;" horiz-adv-x="917" d="M149 1272q0 55 36 93t87 38q53 0 88 -37t35 -94t-35 -94t-88 -37h-2q-49 0 -85 38t-36 93zM512 1272q0 55 36.5 93t88 38t86 -37t34.5 -94t-33.5 -94t-87.5 -37h-2q-51 0 -86.5 38t-35.5 93zM84 623v378h268v-362q0 -139 109 -139q55 0 94 28v473h270v-1011h-268v360h-6 q-70 -45 -184 -45q-283 1 -283 318z" />
<glyph unicode="&#x4f8;" horiz-adv-x="1394" d="M393 1651q0 55 36 93t87 38q53 0 88 -37t35 -94t-35 -94t-88 -37h-2q-49 0 -85 38t-36 93zM756 1651q0 55 36.5 93t88 38t86 -37t34.5 -94t-33.5 -94t-87.5 -37h-2q-51 0 -86.5 38t-35.5 93zM119 4v1376h266v-516q43 8 100 8q186 0 303 -113.5t117 -301.5 q0 -199 -114 -320q-141 -147 -439 -147q-127 0 -233 14zM387 209q18 -4 49 -4q84 0 137.5 65.5t53.5 159.5q0 100 -50.5 163.5t-132.5 63.5q-33 0 -57 -6v-442zM1006 0v1380h270v-1380h-270z" />
<glyph unicode="&#x4f9;" horiz-adv-x="1286" d="M342 1272q0 55 36 93t87 38q53 0 88 -37t35 -94t-35 -94t-88 -37h-2q-49 0 -85 38t-36 93zM705 1272q0 55 36.5 93t88 38t86 -37t34.5 -94t-33.5 -94t-87.5 -37h-2q-51 0 -86.5 38t-35.5 93zM94 8v993h264v-319q43 8 105 8q160 0 271.5 -86t111.5 -248q0 -172 -127 -268 q-135 -98 -363 -98q-125 0 -262 18zM358 188q16 -2 58 -2q61 0 110 41t49 113q0 76 -50 115t-111 39q-37 0 -56 -5v-301zM928 0v1001h268v-1001h-268z" />
<glyph unicode="&#x2000;" horiz-adv-x="909" />
<glyph unicode="&#x2001;" horiz-adv-x="1818" />
<glyph unicode="&#x2002;" horiz-adv-x="909" />
<glyph unicode="&#x2003;" horiz-adv-x="1818" />
<glyph unicode="&#x2004;" horiz-adv-x="606" />
<glyph unicode="&#x2005;" horiz-adv-x="454" />
<glyph unicode="&#x2006;" horiz-adv-x="303" />
<glyph unicode="&#x2007;" horiz-adv-x="303" />
<glyph unicode="&#x2008;" horiz-adv-x="227" />
<glyph unicode="&#x2009;" horiz-adv-x="362" />
<glyph unicode="&#x200a;" horiz-adv-x="100" />
<glyph unicode="&#x2010;" horiz-adv-x="530" d="M61 469v193h408v-193h-408z" />
<glyph unicode="&#x2011;" horiz-adv-x="530" d="M61 469v193h408v-193h-408z" />
<glyph unicode="&#x2012;" horiz-adv-x="530" d="M61 469v193h408v-193h-408z" />
<glyph unicode="&#x2013;" horiz-adv-x="1024" d="M61 440v185h902v-185h-902z" />
<glyph unicode="&#x2014;" horiz-adv-x="2048" d="M61 440v185h1926v-185h-1926z" />
<glyph unicode="&#x2018;" horiz-adv-x="389" d="M16 866q76 254 230 516l139 19q-109 -313 -137 -514z" />
<glyph unicode="&#x2019;" horiz-adv-x="389" d="M8 866q109 313 137 514l232 21q-84 -268 -232 -516z" />
<glyph unicode="&#x201a;" horiz-adv-x="389" d="M8 -223q111 313 137 512l232 20q-82 -264 -232 -514z" />
<glyph unicode="&#x201c;" horiz-adv-x="690" d="M8 866q76 254 230 516l139 19q-109 -313 -137 -514zM326 866q84 268 231 516l137 19q-109 -319 -137 -514z" />
<glyph unicode="&#x201d;" horiz-adv-x="690" d="M0 866q109 313 137 514l232 21q-76 -254 -230 -516zM317 866q109 313 138 514l231 21q-80 -266 -229 -516z" />
<glyph unicode="&#x201e;" horiz-adv-x="690" d="M0 -223q111 313 137 512l232 20q-74 -248 -230 -514zM317 -223q111 313 138 512l231 20q-78 -262 -229 -514z" />
<glyph unicode="&#x2022;" horiz-adv-x="587" d="M78 545q0 102 61.5 164.5t155.5 62.5q92 0 153.5 -61.5t61.5 -163.5q0 -100 -60.5 -161.5t-156.5 -61.5h-2q-90 0 -151.5 61.5t-61.5 159.5z" />
<glyph unicode="&#x2026;" horiz-adv-x="2048" d="M184 162q0 76 47.5 127t110.5 51q66 0 111 -49t45 -129q0 -82 -43 -130t-115 -48h-2q-63 0 -108.5 49t-45.5 129zM868 162q0 76 47.5 127t110.5 51q66 0 111 -49t45 -129q0 -82 -43 -130t-115 -48h-2q-66 0 -110 49t-44 129zM1552 162q0 76 47.5 127t110.5 51 q66 0 111 -49t45 -129q0 -82 -43 -130t-115 -48h-2q-66 0 -110 49t-44 129z" />
<glyph unicode="&#x202f;" horiz-adv-x="362" />
<glyph unicode="&#x2039;" horiz-adv-x="452" d="M33 516l215 379h194l-221 -379l221 -379h-194z" />
<glyph unicode="&#x203a;" horiz-adv-x="452" d="M10 137l221 379l-221 379h193l217 -379l-215 -379h-195z" />
<glyph unicode="&#x205f;" horiz-adv-x="454" />
<glyph unicode="&#x20ac;" d="M49 487v138h94v24q0 12 1 37t1 35h-96v139h111q23 170 110 293q129 195 371 195q92 0 188 -41l-43 -224q-66 35 -135 35q-106 0 -162 -86q-45 -61 -61 -172h313v-139h-327q-2 -20 -2 -74v-22h329v-138h-319q10 -121 59 -190q53 -84 166 -84q78 0 156 39l28 -221 q-100 -47 -215 -47q-203 0 -325 147q-111 129 -137 356h-105z" />
<glyph unicode="&#x2122;" horiz-adv-x="1103" d="M51 1247v133h389v-133h-116v-426h-158v426h-115zM477 821l27 559h227l27 -133q12 -80 22 -180h2q2 25 27 178l31 135h213l24 -559h-143l-8 246q0 131 -2 217h-6q-14 -94 -35 -217l-41 -236h-144l-34 238q-16 137 -27 215h-6q-6 -209 -6 -217l-11 -246h-137z" />
<glyph unicode="&#xe000;" horiz-adv-x="1000" d="M0 1000h1000v-1000h-1000v1000z" />
</font>
</defs>
</svg>
